<svg xmlns="http://www.w3.org/2000/svg" viewBox="0 0 500 500"><style>.st0{fill:#f5f5f5}.st1{fill:#e6e6e6}.st2{fill:#37474f}.st3{fill:#455a64}.st4{fill:#27debf}.st5{opacity:.6}.st5,.st6,.st7{fill:#5e17eb}.st6{opacity:.5}.st7{opacity:.4}.st8{opacity:.15}.st9{fill:#263238}.st10{fill:#5e17eb}.st11{fill:#e0e0e0}.st12{fill:#ebebeb}.st13{fill:#fff}.st14{opacity:.5}.st17{fill:none;stroke:#5e17eb;stroke-miterlimit:10}.st18,.st20{opacity:.6;fill:#fff}.st20{opacity:.8}.st23{opacity:.6;fill:#27debf}.st28{fill:#ffa8a7}.st29{fill:#fafafa}.st31{fill:#f28f8f}.st37{opacity:.2}.st39{fill:#f0f0f0}</style><g id="Floor"><ellipse id="Floor_10_" class="st0" cx="249.9" cy="362.4" rx="224.2" ry="124.2"/></g><g id="Shadows_1_"><path id="Shadow_10_" class="st1" d="M451.7 343.1l-125 72.2c-.9.5-2.4.5-3.4 0l-180.2-104c-.9-.5-.9-1.4 0-1.9l125-72.2c.9-.5 2.4-.5 3.4 0l180.2 104.1c.9.4.9 1.3 0 1.8z"/><ellipse id="Shadow_9_" class="st1" cx="161.2" cy="412.4" rx="75.1" ry="43.3"/><ellipse id="Shadow_8_" class="st1" cx="252.7" cy="362.1" rx="59.1" ry="34.1"/><ellipse id="Shadow_5_" class="st1" cx="384.1" cy="407.9" rx="37.1" ry="21.4"/></g><g id="Desk_1_"><g id="Desk"><g id="Table_2_"><g id="XMLID_3957_"><path id="XMLID_3960_" class="st2" d="M329.4 286.4v110.9c0 .7-.5 1.6-1.1 1.9l-2.4 1.4c-.6.4-1.6.4-2.2 0l-2.4-1.4c-.6-.4-1.1-1.2-1.1-1.9V286.4c0-.7.5-1 1.1-.6l2.4 1.4c.6.4 1.6.4 2.2 0l2.4-1.4c.6-.4 1.1-.1 1.1.6z"/><path id="XMLID_3959_" class="st3" d="M323.7 400.6l-2.4-1.4c-.6-.4-1.1-1.2-1.1-1.9V286.4c0-.7.5-1 1.1-.6l2.4 1.4c.6.4 1.1 1.2 1.1 1.9V400c0 .7-.5 1-1.1.6z"/></g><g id="XMLID_3954_"><path id="XMLID_3956_" class="st2" d="M430.9 227.7v110.9c0 .7-.5 1.6-1.1 1.9l-2.4 1.4c-.6.4-1.6.4-2.2 0l-2.4-1.4c-.6-.4-1.1-1.2-1.1-1.9V227.7c0-.7.5-1 1.1-.6l2.4 1.4c.6.4 1.6.4 2.2 0l2.4-1.4c.6-.4 1.1-.1 1.1.6z"/><path id="XMLID_3955_" class="st3" d="M425.2 342l-2.4-1.4c-.6-.4-1.1-1.2-1.1-1.9v-111c0-.7.5-1 1.1-.6l2.4 1.4c.6.4 1.1 1.2 1.1 1.9v110.9c0 .7-.5 1-1.1.7z"/></g><g id="XMLID_3951_"><path id="XMLID_3953_" class="st2" d="M192.7 207.5v110.9c0 .7-.5 1.6-1.1 1.9l-2.4 1.4c-.6.4-1.6.4-2.2 0l-2.4-1.4c-.6-.4-1.1-1.2-1.1-1.9V207.5c0-.7.5-1 1.1-.6l2.4 1.4c.6.4 1.6.4 2.2 0l2.4-1.4c.6-.4 1.1-.1 1.1.6z"/><path id="XMLID_3952_" class="st3" d="M187 321.7l-2.4-1.4c-.6-.4-1.1-1.2-1.1-1.9V207.5c0-.7.5-1 1.1-.6l2.4 1.4c.6.4 1.1 1.2 1.1 1.9v110.9c0 .7-.5 1-1.1.6z"/></g><g id="XMLID_3938_"><g id="XMLID_3949_"><path id="XMLID_3950_" class="st4" d="M453 235.6v-.8c0-1.3-.9-2.9-2-3.5L272 128c-1.1-.6-2.9-.6-4.1 0l-110.1 63.6c-1.1.6-2 2.2-2 3.5v.8c0 1.3.9 2.9 2 3.5l179 103.3c1.1.6 2.9.6 4.1 0L451 239.1c1.1-.6 2-2.2 2-3.5z"/><path id="XMLID_339_" class="st5" d="M453 235.6v-.8c0-1.3-.9-2.9-2-3.5L272 128c-1.1-.6-2.9-.6-4.1 0l-110.1 63.6c-1.1.6-2 2.2-2 3.5v.8c0 1.3.9 2.9 2 3.5l179 103.3c1.1.6 2.9.6 4.1 0L451 239.1c1.1-.6 2-2.2 2-3.5z"/></g><g id="XMLID_3947_"><path id="XMLID_3948_" class="st4" d="M338.8 297.7v5.5c.7 0 1.5-.2 2-.5L451 239.1c1.1-.7 2-2.2 2-3.5v-.8c0-1.1-.7-2.5-1.7-3.3.7.6.6 1.5-.4 2.1l-110.1 63.6c-.5.4-1.2.5-2 .5z"/><path id="XMLID_3946_" class="st6" d="M338.8 297.7v5.5c.7 0 1.5-.2 2-.5L451 239.1c1.1-.7 2-2.2 2-3.5v-.8c0-1.1-.7-2.5-1.7-3.3.7.6.6 1.5-.4 2.1l-110.1 63.6c-.5.4-1.2.5-2 .5z"/></g><path id="XMLID_3942_" class="st4" d="M451 233.6l-110.1 63.6c-1.1.6-2.9.6-4.1 0L157.8 194c-1.1-.6-1.1-1.7 0-2.4L267.9 128c1.1-.6 2.9-.6 4.1 0l179 103.3c1.1.6 1.1 1.7 0 2.3z"/><path id="XMLID_337_" class="st7" d="M451 233.6l-110.1 63.6c-1.1.6-2.9.6-4.1 0L157.8 194c-1.1-.6-1.1-1.7 0-2.4L267.9 128c1.1-.6 2.9-.6 4.1 0l179 103.3c1.1.6 1.1 1.7 0 2.3z"/></g></g><g id="Keyboard_1_"><path id="Shadow_30_" class="st8" d="M325.3 232.2l-26.1 15.1c-.8.5-2.1.5-2.9 0l-77.1-44.4c-.8-.5-.8-1.2 0-1.7l26.1-15.1c.8-.5 2.1-.5 2.9 0l77.1 44.4c.8.5.8 1.3 0 1.7z"/><g id="Keyboard_4_"><g id="XMLID_3931_"><path id="XMLID_3936_" class="st9" d="M220.8 198.5c0-.3.2-.6.6-.8l24.5-14.1c.8-.5 2.1-.5 2.9 0l74.8 43.3c.4.2.6.5.6.8v2.6c0 .3-.2.6-.6.8l-24.5 14.1c-.8.5-2.1.5-2.9 0L221.4 202c-.4-.2-.6-.5-.6-.8v-2.7z"/><path id="XMLID_3935_" class="st2" d="M299.1 242.6l24.5-14.1c.8-.5.8-1.2 0-1.7l-74.8-43.3c-.8-.5-2.1-.5-2.9 0l-24.5 14.1c-.8.5-.8 1.2 0 1.7l74.8 43.2c.8.5 2.1.5 2.9.1z"/><path id="XMLID_3933_" class="st9" d="M297.7 242.9v2.6c.5 0 1-.1 1.4-.3l24.5-14.1c.4-.2.6-.5.6-.8v-2.6c0 .3-.2.6-.6.8l-24.5 14.1c-.4.2-.9.3-1.4.3z"/></g><path id="XMLID_3768_" class="st10" d="M225.3 198.7l2.4-1.4 3.3 1.9-2.4 1.4-3.3-1.9zm3.8-2.2l2.4-1.4 2.6 1.5-2.4 1.4-2.6-1.5zm.8 4.9s0-.1 0 0l2.4-1.4 2.6 1.5-2.4 1.4-2.6-1.5zm3-7.1l2.4-1.4 4.2 2.4-2.4 1.4-4.2-2.4zm.1 4.5s0-.1 0 0l2.4-1.4 2.1 1.2-2.4 1.4-2.1-1.2zm.8 4.8l2.4-1.4 2.6 1.5-2.4 1.4-2.6-1.5zm2.6-2.9l2.4-1.4 2.1 1.2-2.4 1.4-2.1-1.2zm.3-8.6l2.4-1.4 3.3 1.9-2.4 1.4-3.3-1.9zm1 13.8s0-.1 0 0l2.4-1.4 18.7 10.8-2.4 1.4-18.7-10.8zm.7-8.4l2.4-1.4 2.1 1.2-2.4 1.4-2.1-1.2zm1.3 5.2c0-.1 0-.1 0 0l2.4-1.4 2.1 1.2-2.4 1.4-2.1-1.2zm.8-12.7c0-.1 0-.1 0 0l2.4-1.4 2.1 1.2-2.4 1.4-2.1-1.2zm.8 4.8l2.4-1.4 2.1 1.2-2.4 1.4-2.1-1.2zm.4 4.6s.1 0 0 0l2.4-1.4 2.1 1.2-2.4 1.4-2.1-1.2zm1.4 5.2l2.4-1.4 2.1 1.2-2.4 1.4-2.1-1.2zm.8-12.7l2.4-1.4 2.1 1.2-2.4 1.4-2.1-1.2zm.8 4.8l2.4-1.4 2.1 1.2-2.4 1.4-2.1-1.2zm.4 4.7l2.4-1.4 2.1 1.2-2.4 1.4-2.1-1.2zm0-14.1l2.4-1.4 2.6 1.5-2.4 1.4-2.6-1.5zm1.3 19.2s.1 0 0 0l2.4-1.4 2.1 1.2-2.4 1.4-2.1-1.2zm.8-12.7l2.4-1.4 2.1 1.2-2.4 1.4-2.1-1.2zm.8 4.9l2.4-1.4 2.1 1.2-2.4 1.4-2.1-1.2zm.5 4.6l2.4-1.4 2.1 1.2-2.4 1.4-2.1-1.2zm1.3 5.2s0-.1 0 0l2.4-1.4 2.1 1.2-2.4 1.4-2.1-1.2zm.7-18.1l2.4-1.4 2.1 1.2-2.4 1.4-2.1-1.2zm.1 5.4s0-.1 0 0l2.4-1.4 2.1 1.2-2.4 1.4-2.1-1.2zm.8 4.8l2.4-1.4 2.1 1.2-2.4 1.4-2.1-1.2zm.4 4.7c0-.1 0-.1 0 0l2.4-1.4 2.1 1.2-2.4 1.4-2.1-1.2zm1.4 5.1l2.4-1.4 2.1 1.2-2.4 1.4-2.1-1.2zm.6-18.1l2.4-1.4 2.1 1.2-2.4 1.4-2.1-1.2zm.1 5.4s.1 0 0 0l2.4-1.4 2.1 1.2-2.4 1.4-2.1-1.2zm.8 4.9c0-.1.1-.1 0 0l2.4-1.4 2.1 1.2-2.4 1.4-2.1-1.2zm.5 4.6l2.4-1.4 2.1 1.2-2.4 1.4-2.1-1.2zm1.3 5.2c0-.1 0-.1 0 0l2.4-1.4 2.1 1.2-2.4 1.4-2.1-1.2zm.7-18.1c0-.1 0-.1 0 0l2.4-1.4 2.1 1.2-2.4 1.4-2.1-1.2zm.1 5.4c0-.1 0-.1 0 0l2.4-1.4 2.1 1.2-2.4 1.4-2.1-1.2zm.4 17.7l2.4-1.4 2.6 1.5-2.4 1.4-2.6-1.5zm.4-12.9l2.4-1.4 2.1 1.2-2.4 1.4-2.1-1.2zm.4 4.6s.1 0 0 0l2.4-1.4 2.1 1.2-2.4 1.4-2.1-1.2zm1.4 5.2l2.4-1.4 2.1 1.2-2.4 1.4-2.1-1.2zm.6-18.1s.1 0 0 0l2.4-1.4 2.1 1.2-2.4 1.4-2.1-1.2zm.2 5.4l2.4-1.4 2.1 1.2-2.4 1.4-2.1-1.2zm.8 4.8l2.4-1.4 2.1 1.2-2.4 1.4-2.1-1.2zm.1 13.3c0-.1 0-.1 0 0l2.4-1.4 2.6 1.5-2.4 1.4-2.6-1.5zm.3-8.6l2.4-1.4 2.1 1.2-2.4 1.4-2.1-1.2zm1.3 5.1s.1 0 0 0l2.4-1.4 2.1 1.2-2.4 1.4-2.1-1.2zm.8-12.7l2.4-1.4 2.1 1.2-2.4 1.4-2.1-1.2zm.8 4.9l2.4-1.4 2.1 1.2-2.4 1.4-2.1-1.2zm.5 4.6l2.4-1.4 2.1 1.2-2.4 1.4-2.1-1.2zm.1-14l2.4-1.4 2.1 1.2-2.4 1.4-2.1-1.2zm.1 22.9l2.4-1.4 2.6 1.5-2.4 1.4-2.6-1.5zm1.1-3.7s0-.1 0 0l2.4-1.4 2.1 1.2-2.4 1.4-2.1-1.2zm.8-12.7s0-.1 0 0l2.4-1.4 2.1 1.2-2.4 1.4-2.1-1.2zm.8 4.8l2.4-1.4 2.1 1.2-2.4 1.4-2.1-1.2zm.4 4.7c0-.1 0-.1 0 0l2.4-1.4 2.1 1.2-2.4 1.4-2.1-1.2zm.1-14.1l2.4-1.4 2.1 1.2-2.4 1.4-2.1-1.2zm.6 23.2s.1 0 0 0l2.4-1.4 3.3 1.9-2.4 1.4-3.3-1.9zm.7-4l2.4-1.4 6.5 3.7-2.4 1.4-6.5-3.7zm.7-12.7s.1 0 0 0l2.4-1.4 2.1 1.2-2.4 1.4-2.1-1.2zm.8 4.9c0-.1.1-.1 0 0l2.4-1.4 2.1 1.2-2.4 1.4-2.1-1.2zm.5 4.6l2.4-1.4 2.1 1.2-2.4 1.4-2.1-1.2zm.1-14c0-.1 0-.1 0 0l2.4-1.4 2.1 1.2-2.4 1.4-2.1-1.2zm2 6.5c0-.1 0-.1 0 0l2.4-1.4 2.1 1.2-2.4 1.4-2.1-1.2zm.6 17.8l2.4-1.4 2.1 1.2-2.4 1.4-2.1-1.2zm.2-13l2.4-1.4 2.1 1.2-2.4 1.4-2.1-1.2zm.4 4.6s.1 0 0 0l2.4-1.4 1.9 1.1c.1.1.4.1.6.1.3 0 .5 0 .6-.1l3.2-1.8 2.4 1.4-6.2 3.6-4.9-2.9zm.1-14s.1 0 0 0l2.4-1.4 2.1 1.2-2.4 1.4-2.1-1.2zm2.1 6.5l2.4-1.4 2.1 1.2-2.4 1.4-2.1-1.2zm.5 17.9c0-.1 0-.1 0 0l2.4-1.4 2.1 1.2-2.4 1.4-2.1-1.2zm.3-13.1l2.4-1.4 2.1 1.2-2.4 1.4-2.1-1.2zm2-8.5l2.4-1.4 2.1 1.2-2.4 1.4-2.1-1.2zm.5 5.6l2.4-1.4 2.1 1.2-2.4 1.4-2.1-1.2zm.6 17.9l2.4-1.4 2.1 1.2-2.4 1.4-2.1-1.2zm.4-4.1c0-.1 0-.1 0 0l2.4-1.4 2.1 1.2-2.4 1.4-2.1-1.2zm1.8-17.5l2.4-1.4 2.1 1.2-2.4 1.4-2.1-1.2zm.6 5.7s0-.1 0 0l2.4-1.4 3.6 2.1-2.4 1.4-3.6-2.1zm1.2 18.2s.1 0 0 0l2.4-1.4 5.4 3.1-2.4 1.4-5.4-3.1zm.6-12.8s.1 0 0 0l2.4-1.4 2.1 1.2-2.4 1.4-2.1-1.2zm1-9.1s0-.1 0 0l2.4-1.4 2.1 1.2-2.4 1.4-2.1-1.2zm2.2 19.7l2.4-1.4 2.1 1.2-2.4 1.4-2.1-1.2zm.2-8.6s0-.1 0 0l2.4-1.4 2.1 1.2-2.4 1.4-2.1-1.2zm.4-4.2s.1 0 0 0l2.4-1.4 2.1 1.2-2.4 1.4-2.1-1.2zm.5-5s.1 0 0 0l2.4-1.4 2.1 1.2-2.4 1.4-2.1-1.2zm1.9 23.9l2.4-1.4 2.1 1.2-2.4 1.4-2.1-1.2zm.4-4.1l2.4-1.4 2.1 1.2-2.4 1.4-2.1-1.2zm.2-8.7l2.4-1.4 2.1 1.2-2.4 1.4-2.1-1.2zm.2 4.6c0-.1 0-.1 0 0l2.4-1.4 2.1 1.2-2.4 1.4-2.1-1.2zm.2-8.7l2.4-1.4 2.1 1.2-2.4 1.4-2.1-1.2zm1.3-4.6l2.4-1.4 2.1 1.2-2.4 1.4-2.1-1.2zm1 23.5c0-.1 0-.1 0 0l6.2-3.6 2.1 1.2-6.2 3.6-2.1-1.2zm.5-4.2l2.4-1.4 2.1 1.2-2.4 1.4-2.1-1.2zm.4-4.1l2.4-1.4 2.1 1.2-2.4 1.4-2.1-1.2zm.2-8.7l2.4-1.4 2.1 1.2-2.4 1.4-2.1-1.2zm.2 4.6c0-.1 0-.1 0 0l2.4-1.4 2.1 1.2-2.4 1.4-2.1-1.2zm1-9.2l2.4-1.4 2.1 1.2-2.4 1.4-2.1-1.2zm2 15.2l2.4-1.4 2.1 1.2-2.4 1.4-2.1-1.2zm.4-4.1l2.4-1.4 2.1 1.2-2.4 1.4-2.1-1.2zm.4-4.1s0-.1 0 0l2.4-1.4 2.1 1.2-2.4 1.4-2.1-1.2zm.6-5c0-.1 0-.1 0 0l2.4-1.4 2.1 1.2-2.4 1.4-2.1-1.2zm1.9 15.2s0-.1 0 0l6.2-3.6 2.1 1.2-6.2 3.6-2.1-1.2zm.5-4.2l2.4-1.4 2.1 1.2-2.4 1.4-2.1-1.2zm.4-4.1l2.4-1.4 2.1 1.2-2.4 1.4-2.1-1.2zm2.2-5.2l1-.6 2.1 1.2-1.1.7-2-1.3zm1.2 7.1l2.4-1.4 2.1 1.2-2.4 1.4-2.1-1.2zm2.2-5.1l1-.6 2.1 1.2-1.1.7-2-1.3zm1.1 7.1l2.4-1.4 2.1 1.2-2.4 1.4-2.1-1.2zm2.2-5.2l1-.6 2.1 1.2-1.1.7-2-1.3zm3.4 2c0-.1 0-.1 0 0l1-.6 2.1 1.2-1.1.7-2-1.3z"/></g></g><g id="Device"><path id="Shadow_29_" class="st8" d="M385.6 235.2l22.9-13.3-114.7-66.2-23 13.2z"/><g id="Monitor_2_"><g id="XMLID_3761_"><g id="XMLID_3766_"><path id="XMLID_3767_" class="st1" d="M320.6 213.6l-16.4-9.5c-1.7-1-2.5-2.3-2.5-3.5v-2.3l15.4-8.8c.9-.5 1.6-1.8 1.6-2.8v-20.2l28.6 16.5v20.2c0 1-.7 2.3-1.6 2.8l-12.9 7.5c-3.4 2-8.8 2-12.2.1z"/></g><path id="XMLID_3765_" class="st11" d="M340.5 206.8v2.3l5.2-3c.9-.5 1.6-1.8 1.6-2.8v-20.2l-5.5-3.1-.3 4.2 3.8 2.2v15.8c0 1-.7 2.3-1.6 2.8l-3.2 1.8z"/><path id="XMLID_3764_" class="st0" d="M345.4 202.1c0 1-.7 2.3-1.6 2.8l-10.9 6.4c-3.4 2-8.9 2-12.2 0l-16.4-9.5c-3.4-1.9-3.4-5.1 0-7.1l10.9-6.4c.9-.5 1.6-1.8 1.6-2.8v-15.8l28.6 16.5v15.9z"/><path id="XMLID_3763_" class="st12" d="M311.8 190.3l3.3-1.9c.9-.5 1.6-1.8 1.6-2.8v-15.8l28.6 16.5v15.8c0 1-.7 2.3-1.6 2.8l-3.3 1.9-28.6-16.5z"/><path id="XMLID_3762_" class="st12" d="M301.7 198.3v2.3c0 1.3.8 2.6 2.5 3.5l16.4 9.5c1.6.9 3.7 1.4 5.8 1.5v-2.3c-2.1 0-4.2-.5-5.8-1.5l-16.4-9.5c-1.7-.9-2.5-2.2-2.5-3.5z"/></g><path id="XMLID_3760_" class="st3" d="M391.3 223.9c-1.1.6-2.8.6-4-.1-14.1-8.1-96.6-55.8-110.7-63.9-1.1-.7-2-2.2-2-3.5V59.5c0-1.3.9-2.8 1.9-3.5 1.1-.6 2.8-.6 4 .1L391.2 120c1.1.7 2 2.2 2 3.5v96.9c0 1.4-.8 2.9-1.9 3.5z"/><path id="XMLID_3758_" class="st2" d="M387.4 223.9L276.7 160c-1.1-.7-2-2.2-2-3.5v-97c0-1.3.9-1.8 2-1.2l110.7 63.9c1.1.7 2 2.2 2 3.5v96.9c0 1.4-.9 1.9-2 1.3z"/><path id="XMLID_3757_" class="st11" d="M387.7 224.3c1.1.5 2.7.5 3.7-.1 1.1-.6 1.9-2.2 1.9-3.5v-10.9l-3.8 2.2v10.9c-.1 1.2-.8 1.8-1.8 1.4z"/><path id="XMLID_3756_" class="st13" d="M389.4 212v10.9c0 1.3-.9 1.8-2 1.2l-110.7-63.9c-1.1-.7-2-2.2-2-3.5v-10.9L389.4 212z"/><path id="XMLID_3755_" class="st4" d="M385.6 203.7V127c0-.8-.5-1.7-1.2-2.1L279.7 64.5c-.7-.4-1.2-.1-1.2.7v76.7c0 .8.5 1.7 1.2 2.1l104.7 60.4c.6.4 1.2.1 1.2-.7z"/><path id="XMLID_3754_" class="st6" d="M385.6 203.7V127c0-.8-.5-1.7-1.2-2.1L279.7 64.5c-.7-.4-1.2-.1-1.2.7v76.7c0 .8.5 1.7 1.2 2.1l104.7 60.4c.6.4 1.2.1 1.2-.7z"/><path id="XMLID_3658_" class="st3" d="M332 183.1c1.1.6 1.9 2.1 1.9 3.3 0 1.2-.9 1.7-1.9 1.1-1.1-.6-1.9-2.1-1.9-3.3 0-1.2.9-1.7 1.9-1.1z"/><path id="XMLID_3657_" class="st9" d="M388.8 123.8c.4.6.6 1.4.6 2V212l3.8-2.2v-86.2c0-.6-.2-1.4-.6-2l-3.8 2.2z"/></g></g><g id="Window_1_"><g id="Window_3_"><path class="st3" d="M292.8 39.5v-.4c0-.1.1-.2.1-.2s0-.1.1-.1c0 0 0-.1.1-.1 0-.1.1-.1.1-.1.1 0 .1-.1.2-.1.4-.2.8-.1 1.3.2l129.2 74.5c1.1.6 2 2.1 2 3.4v93.9c0 .5-.3 1-.7 1.2 0 0-.1 0-.1.1 0 0-.1 0-.1.1-.1 0-.1 0-.2.1h-.2c-.2 0-.4-.1-.6-.2h-.1l-1.9-1.1-127.3-73.5c-1.1-.6-2-2.1-2-3.4v-94c0-.1 0-.2.1-.3z"/><g id="XMLID_3010_"><path class="st10" d="M293.4 38.5c.4-.2.8-.1 1.3.2l129.2 74.5c1.1.6 2 2.1 2 3.4v6.4l2.5-1.5v-6.3c0-1.2-.9-2.8-1.9-3.4L297.2 37.2c-.6-.3-1.1-.3-1.4-.1-.4.2-2 1.2-2.4 1.4z" id="XMLID_3044_"/><path id="XMLID_3036_" class="st10" d="M292.7 39.8c0-1.2.9-1.7 1.9-1.1l129.2 74.5c1.1.6 2 2.1 2 3.4v6.4L292.7 46.2v-6.4z"/><g id="XMLID_3027_" class="st14"><path class="st10" d="M294.7 38.6l129.2 74.5c.5.3 1 .8 1.4 1.4l2.5-1.4c-.3-.6-.8-1.1-1.4-1.4L297.2 37.2c-.6-.3-1.1-.3-1.4-.1-.3.2-2 1.1-2.4 1.4.3-.2.8-.1 1.3.1z"/></g><path id="XMLID_3011_" d="M428.3 121.5v-6.3c0-.6-.2-1.3-.6-2l-2.5 1.4c.4.6.6 1.3.6 1.9v6.4l2.5-1.4z" opacity=".15" fill="#230077"/></g><g id="XMLID_3000_"><path id="XMLID_3009_" class="st3" d="M421.4 114.5c.6.4 1.1 1.4 1.1 2.3s-.5 1.4-1.1 1.1c-.6-.4-1.1-1.4-1.1-2.3 0-.9.5-1.4 1.1-1.1z"/><path id="XMLID_3002_" class="st3" d="M417.4 112.2c.6.4 1.1 1.4 1.1 2.3s-.5 1.4-1.1 1.1c-.6-.4-1.1-1.4-1.1-2.3 0-.9.5-1.4 1.1-1.1z"/><path id="XMLID_3001_" class="st3" d="M413.5 110c.6.4 1.1 1.4 1.1 2.3 0 .9-.5 1.4-1.1 1.1-.6-.4-1.1-1.4-1.1-2.3s.5-1.5 1.1-1.1z"/></g><path d="M425.1 211.7l.1-.1 2.1-1.2c.6-.3.9-.9 1-1.5v-87.5l-2.5 1.5v87.6c0 .5-.2.9-.7 1.2.1-.1.1-.1 0 0z" opacity=".9" fill="#263238"/></g><g id="Code"><path id="XMLID_2979_" class="st17" d="M332.3 79.4l27.2 15.7c.4.2.7.7.7 1.2 0 .4-.3.6-.7.4L332.3 81c-.4-.2-.7-.7-.7-1.2 0-.4.3-.6.7-.4z"/><path id="XMLID_2977_" class="st1" d="M342.7 109.5l10.3 5.9c.4.2.7.7.7 1.2 0 .4-.3.6-.7.4l-10.3-5.9c-.4-.2-.7-.7-.7-1.2s.3-.6.7-.4z"/><path id="XMLID_2971_" class="st1" d="M342.7 115.5l10.3 5.9c.4.2.7.7.7 1.2 0 .4-.3.6-.7.4l-10.3-5.9c-.4-.2-.7-.7-.7-1.2s.3-.6.7-.4z"/><path id="XMLID_2967_" class="st17" d="M362.2 96.7l54.5 31.4c.4.2.7.7.7 1.2 0 .4-.3.6-.7.4l-54.5-31.4c-.4-.2-.7-.7-.7-1.2s.3-.6.7-.4z"/><path id="XMLID_2926_" class="st10" d="M342.9 151.6l16.6 9.6c.4.2.7.7.7 1.2 0 .4-.3.6-.7.4l-16.6-9.6c-.4-.2-.7-.7-.7-1.2s.4-.6.7-.4z"/><path id="XMLID_2925_" class="st10" d="M362.2 162.8l54.5 31.4c.4.2.7.7.7 1.2 0 .4-.3.6-.7.4l-54.5-31.4c-.4-.2-.7-.7-.7-1.2s.3-.7.7-.4z"/><g id="XMLID_2876_"><path id="XMLID_2905_" class="st4" d="M332.3 85.5l13.7 7.9c.4.2.7.7.7 1.2 0 .4-.3.6-.7.4l-13.7-8c-.4-.2-.7-.7-.7-1.2 0-.4.3-.6.7-.3z"/><path id="XMLID_2890_" class="st5" d="M332.3 85.5l13.7 7.9c.4.2.7.7.7 1.2 0 .4-.3.6-.7.4l-13.7-8c-.4-.2-.7-.7-.7-1.2 0-.4.3-.6.7-.3z"/></g><g id="XMLID_2873_"><path id="XMLID_2875_" class="st4" d="M332.3 91.5l6.4 3.7c.4.2.7.7.7 1.2 0 .4-.3.6-.7.4l-6.4-3.7c-.4-.2-.7-.7-.7-1.2s.3-.7.7-.4z"/><path id="XMLID_2874_" class="st5" d="M332.3 91.5l6.4 3.7c.4.2.7.7.7 1.2 0 .4-.3.6-.7.4l-6.4-3.7c-.4-.2-.7-.7-.7-1.2s.3-.7.7-.4z"/></g><g id="XMLID_2867_"><path id="XMLID_2869_" class="st4" d="M332.3 103.5l6.4 3.7c.4.2.7.7.7 1.2 0 .4-.3.6-.7.4l-6.4-3.7c-.4-.2-.7-.7-.7-1.2s.3-.6.7-.4z"/><path id="XMLID_2868_" class="st5" d="M332.3 103.5l6.4 3.7c.4.2.7.7.7 1.2 0 .4-.3.6-.7.4l-6.4-3.7c-.4-.2-.7-.7-.7-1.2s.3-.6.7-.4z"/></g><g id="XMLID_2864_"><path id="XMLID_2866_" class="st4" d="M332.3 109.5l6.4 3.7c.4.2.7.7.7 1.2s-.3.6-.7.4l-6.4-3.7c-.4-.2-.7-.7-.7-1.2s.3-.6.7-.4z"/><path id="XMLID_2865_" class="st5" d="M332.3 109.5l6.4 3.7c.4.2.7.7.7 1.2s-.3.6-.7.4l-6.4-3.7c-.4-.2-.7-.7-.7-1.2s.3-.6.7-.4z"/></g><g id="XMLID_2855_"><path id="XMLID_2863_" class="st4" d="M348.7 94.9l8.2 4.8c.4.2.7.7.7 1.2 0 .4-.3.6-.7.4l-8.2-4.8c-.4-.2-.7-.7-.7-1.2s.3-.6.7-.4z"/><path id="XMLID_2862_" class="st5" d="M348.7 94.9l8.2 4.8c.4.2.7.7.7 1.2 0 .4-.3.6-.7.4l-8.2-4.8c-.4-.2-.7-.7-.7-1.2s.3-.6.7-.4z"/></g><g id="XMLID_2853_"><path id="XMLID_2854_" class="st13" d="M361.4 138.3l55.3 31.8c.4.2.7.7.7 1.2 0 .4-.3.6-.7.4l-55.3-31.8c-.4-.2-.7-.7-.7-1.2 0-.4.4-.6.7-.4z"/></g><g id="XMLID_2851_"><path id="XMLID_2852_" class="st13" d="M408.5 159.4l8.2 4.8c.4.2.7.7.7 1.2s-.3.6-.7.4l-8.2-4.8c-.4-.2-.7-.7-.7-1.2s.3-.6.7-.4z"/></g><g id="XMLID_2849_"><path id="XMLID_2850_" class="st13" d="M350.5 126l55.3 31.8c.4.2.7.7.7 1.2s-.3.6-.7.4l-55.3-31.8c-.4-.2-.7-.7-.7-1.2s.3-.6.7-.4z"/></g><g id="XMLID_2846_"><path id="XMLID_2848_" class="st4" d="M342.7 97.5l13.7 7.9c.4.2.7.7.7 1.2 0 .4-.3.6-.7.4l-13.7-8c-.4-.2-.7-.7-.7-1.2 0-.4.3-.6.7-.3z"/><path id="XMLID_2847_" class="st5" d="M342.7 97.5l13.7 7.9c.4.2.7.7.7 1.2 0 .4-.3.6-.7.4l-13.7-8c-.4-.2-.7-.7-.7-1.2 0-.4.3-.6.7-.3z"/></g><g id="XMLID_2823_"><path id="XMLID_2845_" class="st4" d="M359.1 106.9l57.2 33.1c.4.2.7.7.7 1.2 0 .4-.3.6-.7.4l-57.2-33.1c-.4-.2-.7-.7-.7-1.2s.3-.6.7-.4z"/><path id="XMLID_2839_" class="st17" d="M359.1 106.9l57.2 33.1c.4.2.7.7.7 1.2 0 .4-.3.6-.7.4l-57.2-33.1c-.4-.2-.7-.7-.7-1.2s.3-.6.7-.4z"/></g><path id="XMLID_2978_" class="st1" d="M342.7 133.6l74 42.7c.4.2.7.7.7 1.2s-.3.6-.7.4l-74-42.7c-.4-.2-.7-.7-.7-1.2 0-.4.3-.6.7-.4z"/><g id="XMLID_2870_"><path id="XMLID_2872_" class="st4" d="M332.3 127.6l6.4 3.7c.4.2.7.7.7 1.2 0 .4-.3.6-.7.4l-6.4-3.7c-.4-.2-.7-.7-.7-1.2 0-.4.3-.6.7-.4z"/><path id="XMLID_2871_" class="st5" d="M332.3 127.6l6.4 3.7c.4.2.7.7.7 1.2 0 .4-.3.6-.7.4l-6.4-3.7c-.4-.2-.7-.7-.7-1.2 0-.4.3-.6.7-.4z"/></g><path id="XMLID_2986_" class="st1" d="M342.7 139.6l74 42.7c.4.2.7.7.7 1.2 0 .4-.3.6-.7.4l-74-42.7c-.4-.2-.7-.7-.7-1.2 0-.4.3-.6.7-.4z"/><g id="XMLID_2981_"><path id="XMLID_2984_" class="st4" d="M332.3 133.6l6.4 3.7c.4.2.7.7.7 1.2 0 .4-.3.6-.7.4l-6.4-3.7c-.4-.2-.7-.7-.7-1.2 0-.4.3-.6.7-.4z"/><path id="XMLID_2983_" class="st5" d="M332.3 133.6l6.4 3.7c.4.2.7.7.7 1.2 0 .4-.3.6-.7.4l-6.4-3.7c-.4-.2-.7-.7-.7-1.2 0-.4.3-.6.7-.4z"/></g><path id="XMLID_2994_" class="st1" d="M342.7 145.6l74 42.7c.4.2.7.7.7 1.2s-.3.6-.7.4l-74-42.7c-.4-.2-.7-.7-.7-1.2 0-.4.3-.6.7-.4z"/><g id="XMLID_2991_"><path id="XMLID_2993_" class="st4" d="M332.3 139.6l6.4 3.7c.4.2.7.7.7 1.2 0 .4-.3.6-.7.4l-6.4-3.7c-.4-.2-.7-.7-.7-1.2 0-.4.3-.6.7-.4z"/><path id="XMLID_2992_" class="st18" d="M332.3 139.6l6.4 3.7c.4.2.7.7.7 1.2 0 .4-.3.6-.7.4l-6.4-3.7c-.4-.2-.7-.7-.7-1.2 0-.4.3-.6.7-.4z"/></g><path class="st13" d="M322.3 73.4l3.8 2.2c.4.2.7.7.7 1.2v1.4c0 .4-.3.6-.7.4l-3.8-2.2c-.4-.2-.7-.7-.7-1.2v-1.4c0-.4.3-.6.7-.4zm0 6.1l3.8 2.2c.4.2.7.7.7 1.2v1.4c0 .4-.3.6-.7.4l-3.8-2.2c-.4-.2-.7-.7-.7-1.2v-1.4c0-.5.3-.6.7-.4zm0 6l3.8 2.2c.4.2.7.7.7 1.2v1.4c0 .4-.3.6-.7.4l-3.8-2.2c-.4-.2-.7-.7-.7-1.2v-1.4c0-.4.3-.6.7-.4zm0 6.1l3.8 2.2c.4.2.7.7.7 1.2v1.4c0 .4-.3.6-.7.4l-3.8-2.2c-.4-.2-.7-.7-.7-1.2V92c0-.4.3-.6.7-.4zm0 6.1l3.8 2.2c.4.2.7.7.7 1.2v1.4c0 .4-.3.6-.7.4l-3.8-2.2c-.4-.2-.7-.7-.7-1.2v-1.4c0-.5.3-.6.7-.4zm0 6l3.8 2.2c.4.2.7.7.7 1.2v1.4c0 .4-.3.6-.7.4l-3.8-2.2c-.4-.2-.7-.7-.7-1.2v-1.4c0-.4.3-.6.7-.4zm0 6.1l3.8 2.2c.4.2.7.7.7 1.2v1.4c0 .4-.3.6-.7.4l-3.8-2.2c-.4-.2-.7-.8-.7-1.2v-1.4c0-.4.3-.6.7-.4zm0 6.1l3.8 2.2c.4.2.7.7.7 1.2v1.4c0 .4-.3.6-.7.4l-3.8-2.2c-.4-.2-.7-.7-.7-1.2v-1.4c0-.5.3-.7.7-.4zm0 6l3.8 2.2c.4.2.7.7.7 1.2v1.4c0 .4-.3.6-.7.4l-3.8-2.2c-.4-.2-.7-.7-.7-1.2v-1.4c0-.4.3-.6.7-.4zm0 6.1l3.8 2.2c.4.2.7.7.7 1.2v1.4c0 .4-.3.6-.7.4l-3.8-2.2c-.4-.2-.7-.7-.7-1.2v-1.4c0-.4.3-.6.7-.4zm0 6.1l3.8 2.2c.4.2.7.7.7 1.2v1.4c0 .4-.3.6-.7.4l-3.8-2.2c-.4-.2-.7-.7-.7-1.2v-1.4c0-.5.3-.7.7-.4zm0 6l3.8 2.2c.4.2.7.7.7 1.2v1.4c0 .4-.3.6-.7.4l-3.8-2.2c-.4-.2-.7-.7-.7-1.2v-1.4c0-.4.3-.6.7-.4z" opacity=".6"/><path class="st2" d="M297.3 53.7l20.4 11.8c.8.4 1.4 1.5 1.4 2.4v23.6c0 .9-.6 1.2-1.4.8l-20.4-11.8c-.8-.4-1.4-1.5-1.4-2.4V54.5c0-.9.6-1.2 1.4-.8z"/><path id="XMLID_2822_" class="st4" d="M299.2 77.1l1.9 1.1c.4.2.7.7.7 1.2 0 .4-.3.6-.7.4l-1.9-1.1c-.4-.2-.7-.7-.7-1.2s.3-.7.7-.4z"/><path id="XMLID_2821_" class="st18" d="M299.2 77.1l1.9 1.1c.4.2.7.7.7 1.2 0 .4-.3.6-.7.4l-1.9-1.1c-.4-.2-.7-.7-.7-1.2s.3-.7.7-.4z"/><path id="XMLID_2820_" class="st4" d="M299.2 57.8l1.9 1.1c.4.2.7.7.7 1.2 0 .4-.3.6-.7.4l-1.9-1.1c-.4-.2-.7-.7-.7-1.2s.3-.6.7-.4z"/><path id="XMLID_529_" class="st18" d="M299.2 57.8l1.9 1.1c.4.2.7.7.7 1.2 0 .4-.3.6-.7.4l-1.9-1.1c-.4-.2-.7-.7-.7-1.2s.3-.6.7-.4z"/><path class="st4" d="M301.8 63.1l1.9 1.1c.4.2.7.7.7 1.2 0 .4-.3.6-.7.4l-1.9-1.1c-.4-.2-.7-.7-.7-1.2 0-.4.3-.6.7-.4z"/><path class="st18" d="M301.8 63.1l1.9 1.1c.4.2.7.7.7 1.2 0 .4-.3.6-.7.4l-1.9-1.1c-.4-.2-.7-.7-.7-1.2 0-.4.3-.6.7-.4z"/><path class="st4" d="M301.8 67l1.9 1.1c.4.2.7.7.7 1.2 0 .4-.3.6-.7.4l-1.9-1.1c-.4-.2-.7-.7-.7-1.2s.3-.6.7-.4z"/><path class="st18" d="M301.8 67l1.9 1.1c.4.2.7.7.7 1.2 0 .4-.3.6-.7.4l-1.9-1.1c-.4-.2-.7-.7-.7-1.2s.3-.6.7-.4z"/><path class="st4" d="M299.2 69.3l1.9 1.1c.4.2.7.7.7 1.2 0 .4-.3.6-.7.4l-1.9-1.1c-.4-.2-.7-.7-.7-1.2 0-.4.3-.6.7-.4z"/><path class="st18" d="M299.2 69.3l1.9 1.1c.4.2.7.7.7 1.2 0 .4-.3.6-.7.4l-1.9-1.1c-.4-.2-.7-.7-.7-1.2 0-.4.3-.6.7-.4z"/><path class="st4" d="M301.8 74.7l1.9 1.1c.4.2.7.7.7 1.2 0 .4-.3.6-.7.4l-1.9-1.1c-.4-.2-.7-.7-.7-1.2 0-.4.3-.6.7-.4z"/><path class="st18" d="M301.8 74.7l1.9 1.1c.4.2.7.7.7 1.2 0 .4-.3.6-.7.4l-1.9-1.1c-.4-.2-.7-.7-.7-1.2 0-.4.3-.6.7-.4z"/><path id="XMLID_354_" class="st4" d="M304.3 60.7l11.5 6.6c.4.2.7.7.7 1.2 0 .4-.3.6-.7.4l-11.5-6.6c-.4-.2-.7-.7-.7-1.2 0-.4.3-.6.7-.4z"/><path id="XMLID_353_" class="st20" d="M304.3 60.7l11.5 6.6c.4.2.7.7.7 1.2 0 .4-.3.6-.7.4l-11.5-6.6c-.4-.2-.7-.7-.7-1.2 0-.4.3-.6.7-.4z"/><path id="XMLID_352_" class="st4" d="M304.3 80l11.5 6.6c.4.2.7.7.7 1.2s-.3.6-.7.4l-11.5-6.6c-.4-.2-.7-.7-.7-1.2 0-.4.3-.6.7-.4z"/><path id="XMLID_343_" class="st20" d="M304.3 80l11.5 6.6c.4.2.7.7.7 1.2s-.3.6-.7.4l-11.5-6.6c-.4-.2-.7-.7-.7-1.2 0-.4.3-.6.7-.4z"/><path class="st4" d="M307 66.1l8.8 5.1c.4.2.7.7.7 1.2 0 .4-.3.6-.7.4l-8.8-5.1c-.4-.2-.7-.7-.7-1.2 0-.4.3-.6.7-.4z"/><path class="st20" d="M307 66.1l8.8 5.1c.4.2.7.7.7 1.2 0 .4-.3.6-.7.4l-8.8-5.1c-.4-.2-.7-.7-.7-1.2 0-.4.3-.6.7-.4z"/><path class="st4" d="M307 70l8.8 5.1c.4.2.7.7.7 1.2 0 .4-.3.6-.7.4l-8.8-5.1c-.4-.2-.7-.7-.7-1.2s.3-.6.7-.4z"/><path class="st20" d="M307 70l8.8 5.1c.4.2.7.7.7 1.2 0 .4-.3.6-.7.4l-8.8-5.1c-.4-.2-.7-.7-.7-1.2s.3-.6.7-.4z"/><path class="st4" d="M304.3 72.3l11.5 6.6c.4.2.7.7.7 1.2 0 .4-.3.6-.7.4l-11.5-6.6c-.4-.2-.7-.7-.7-1.2 0-.4.3-.6.7-.4z"/><path class="st20" d="M304.3 72.3l11.5 6.6c.4.2.7.7.7 1.2 0 .4-.3.6-.7.4l-11.5-6.6c-.4-.2-.7-.7-.7-1.2 0-.4.3-.6.7-.4z"/><path class="st4" d="M307 77.7l8.8 5.1c.4.2.7.7.7 1.2 0 .4-.3.6-.7.4l-8.8-5.1c-.4-.2-.7-.7-.7-1.2s.3-.6.7-.4z"/><path class="st20" d="M307 77.7l8.8 5.1c.4.2.7.7.7 1.2 0 .4-.3.6-.7.4l-8.8-5.1c-.4-.2-.7-.7-.7-1.2s.3-.6.7-.4z"/><path class="st2" d="M297.3 84.9l20.4 11.8c.8.4 1.4 1.5 1.4 2.4v46.5c0 .9-.6 1.2-1.4.8l-20.4-11.8c-.8-.4-1.4-1.5-1.4-2.4V85.7c0-.9.6-1.3 1.4-.8z"/><path id="XMLID_342_" class="st4" d="M299.2 88.9l1.9 1.1c.4.2.7.7.7 1.2 0 .4-.3.6-.7.4l-1.9-1.1c-.4-.2-.7-.7-.7-1.2 0-.4.3-.6.7-.4z"/><path id="XMLID_341_" class="st18" d="M299.2 88.9l1.9 1.1c.4.2.7.7.7 1.2 0 .4-.3.6-.7.4l-1.9-1.1c-.4-.2-.7-.7-.7-1.2 0-.4.3-.6.7-.4z"/><path class="st4" d="M301.8 94.3l1.9 1.1c.4.2.7.7.7 1.2 0 .4-.3.6-.7.4l-1.9-1.1c-.4-.2-.7-.7-.7-1.2s.3-.6.7-.4z"/><path class="st18" d="M301.8 94.3l1.9 1.1c.4.2.7.7.7 1.2 0 .4-.3.6-.7.4l-1.9-1.1c-.4-.2-.7-.7-.7-1.2s.3-.6.7-.4z"/><path class="st4" d="M301.8 98.1l1.9 1.1c.4.2.7.7.7 1.2 0 .4-.3.6-.7.4l-1.9-1.1c-.4-.2-.7-.7-.7-1.2 0-.4.3-.6.7-.4z"/><path class="st18" d="M301.8 98.1l1.9 1.1c.4.2.7.7.7 1.2 0 .4-.3.6-.7.4l-1.9-1.1c-.4-.2-.7-.7-.7-1.2 0-.4.3-.6.7-.4z"/><path class="st4" d="M299.2 100.5l1.9 1.1c.4.2.7.7.7 1.2 0 .4-.3.6-.7.4l-1.9-1.1c-.4-.2-.7-.7-.7-1.2s.3-.6.7-.4z"/><path class="st18" d="M299.2 100.5l1.9 1.1c.4.2.7.7.7 1.2 0 .4-.3.6-.7.4l-1.9-1.1c-.4-.2-.7-.7-.7-1.2s.3-.6.7-.4z"/><path id="XMLID_340_" class="st4" d="M304.3 91.9l11.5 6.6c.4.2.7.7.7 1.2 0 .4-.3.6-.7.4l-11.5-6.6c-.4-.2-.7-.7-.7-1.2s.3-.6.7-.4z"/><path id="XMLID_321_" class="st20" d="M304.3 91.9l11.5 6.6c.4.2.7.7.7 1.2 0 .4-.3.6-.7.4l-11.5-6.6c-.4-.2-.7-.7-.7-1.2s.3-.6.7-.4z"/><path class="st4" d="M307 97.3l8.8 5.1c.4.2.7.7.7 1.2 0 .4-.3.6-.7.4l-8.8-5.1c-.4-.2-.7-.7-.7-1.2s.3-.7.7-.4z"/><path class="st20" d="M307 97.3l8.8 5.1c.4.2.7.7.7 1.2 0 .4-.3.6-.7.4l-8.8-5.1c-.4-.2-.7-.7-.7-1.2s.3-.7.7-.4z"/><path class="st4" d="M307 101.1l8.8 5.1c.4.2.7.7.7 1.2 0 .4-.3.6-.7.4l-8.8-5.1c-.4-.2-.7-.7-.7-1.2 0-.4.3-.6.7-.4z"/><path class="st20" d="M307 101.1l8.8 5.1c.4.2.7.7.7 1.2 0 .4-.3.6-.7.4l-8.8-5.1c-.4-.2-.7-.7-.7-1.2 0-.4.3-.6.7-.4z"/><path class="st4" d="M304.3 103.5l11.5 6.6c.4.2.7.7.7 1.2 0 .4-.3.6-.7.4l-11.5-6.6c-.4-.2-.7-.7-.7-1.2s.3-.7.7-.4z"/><path class="st20" d="M304.3 103.5l11.5 6.6c.4.2.7.7.7 1.2 0 .4-.3.6-.7.4l-11.5-6.6c-.4-.2-.7-.7-.7-1.2s.3-.7.7-.4z"/><path class="st4" d="M301.8 105.9l1.9 1.1c.4.2.7.7.7 1.2 0 .4-.3.6-.7.4l-1.9-1.1c-.4-.2-.7-.7-.7-1.2s.3-.6.7-.4z"/><path class="st18" d="M301.8 105.9l1.9 1.1c.4.2.7.7.7 1.2 0 .4-.3.6-.7.4l-1.9-1.1c-.4-.2-.7-.7-.7-1.2s.3-.6.7-.4z"/><path class="st4" d="M301.8 109.7l1.9 1.1c.4.2.7.7.7 1.2 0 .4-.3.6-.7.4l-1.9-1.1c-.4-.2-.7-.7-.7-1.2 0-.4.3-.6.7-.4z"/><path class="st18" d="M301.8 109.7l1.9 1.1c.4.2.7.7.7 1.2 0 .4-.3.6-.7.4l-1.9-1.1c-.4-.2-.7-.7-.7-1.2 0-.4.3-.6.7-.4z"/><path class="st4" d="M307 108.9l8.8 5.1c.4.2.7.7.7 1.2 0 .4-.3.6-.7.4l-8.8-5.1c-.4-.2-.7-.7-.7-1.2s.3-.7.7-.4z"/><path class="st20" d="M307 108.9l8.8 5.1c.4.2.7.7.7 1.2 0 .4-.3.6-.7.4l-8.8-5.1c-.4-.2-.7-.7-.7-1.2s.3-.7.7-.4z"/><path class="st4" d="M307 112.7l8.8 5.1c.4.2.7.7.7 1.2s-.3.6-.7.4l-8.8-5.1c-.4-.2-.7-.7-.7-1.2 0-.4.3-.6.7-.4z"/><path class="st20" d="M307 112.7l8.8 5.1c.4.2.7.7.7 1.2s-.3.6-.7.4l-8.8-5.1c-.4-.2-.7-.7-.7-1.2 0-.4.3-.6.7-.4z"/><path class="st4" d="M299.2 119.8l1.9 1.1c.4.2.7.7.7 1.2s-.3.6-.7.4l-1.9-1.1c-.4-.2-.7-.7-.7-1.2 0-.4.3-.6.7-.4z"/><path class="st18" d="M299.2 119.8l1.9 1.1c.4.2.7.7.7 1.2s-.3.6-.7.4l-1.9-1.1c-.4-.2-.7-.7-.7-1.2 0-.4.3-.6.7-.4z"/><path class="st4" d="M304.3 122.8l11.5 6.6c.4.2.7.7.7 1.2 0 .4-.3.6-.7.4l-11.5-6.6c-.4-.2-.7-.7-.7-1.2s.3-.6.7-.4z"/><path class="st20" d="M304.3 122.8l11.5 6.6c.4.2.7.7.7 1.2 0 .4-.3.6-.7.4l-11.5-6.6c-.4-.2-.7-.7-.7-1.2s.3-.6.7-.4z"/><path class="st4" d="M301.8 125.2l1.9 1.1c.4.2.7.7.7 1.2 0 .4-.3.6-.7.4l-1.9-1.1c-.4-.2-.7-.7-.7-1.2 0-.4.3-.6.7-.4z"/><path class="st18" d="M301.8 125.2l1.9 1.1c.4.2.7.7.7 1.2 0 .4-.3.6-.7.4l-1.9-1.1c-.4-.2-.7-.7-.7-1.2 0-.4.3-.6.7-.4z"/><path class="st4" d="M301.8 129.1l1.9 1.1c.4.2.7.7.7 1.2 0 .4-.3.6-.7.4l-1.9-1.1c-.4-.2-.7-.7-.7-1.2s.3-.6.7-.4z"/><path class="st18" d="M301.8 129.1l1.9 1.1c.4.2.7.7.7 1.2 0 .4-.3.6-.7.4l-1.9-1.1c-.4-.2-.7-.7-.7-1.2s.3-.6.7-.4z"/><path class="st4" d="M307 128.2l8.8 5.1c.4.2.7.7.7 1.2 0 .4-.3.6-.7.4l-8.8-5.1c-.4-.2-.7-.7-.7-1.2s.3-.6.7-.4z"/><path class="st20" d="M307 128.2l8.8 5.1c.4.2.7.7.7 1.2 0 .4-.3.6-.7.4l-8.8-5.1c-.4-.2-.7-.7-.7-1.2s.3-.6.7-.4z"/><path class="st4" d="M307 132.1l8.8 5.1c.4.2.7.7.7 1.2s-.3.6-.7.4l-8.8-5.1c-.4-.2-.7-.7-.7-1.2s.3-.7.7-.4z"/><path class="st20" d="M307 132.1l8.8 5.1c.4.2.7.7.7 1.2s-.3.6-.7.4l-8.8-5.1c-.4-.2-.7-.7-.7-1.2s.3-.7.7-.4z"/><path class="st4" d="M301.8 113.6l1.9 1.1c.4.2.7.7.7 1.2 0 .4-.3.6-.7.4l-1.9-1.1c-.4-.2-.7-.7-.7-1.2s.3-.7.7-.4z"/><path class="st18" d="M301.8 113.6l1.9 1.1c.4.2.7.7.7 1.2 0 .4-.3.6-.7.4l-1.9-1.1c-.4-.2-.7-.7-.7-1.2s.3-.7.7-.4z"/><path class="st4" d="M299.2 115.9l1.9 1.1c.4.2.7.7.7 1.2s-.3.6-.7.4l-1.9-1.1c-.4-.2-.7-.7-.7-1.2 0-.4.3-.6.7-.4z"/><path class="st18" d="M299.2 115.9l1.9 1.1c.4.2.7.7.7 1.2s-.3.6-.7.4l-1.9-1.1c-.4-.2-.7-.7-.7-1.2 0-.4.3-.6.7-.4z"/><path class="st4" d="M307 116.6l8.8 5.1c.4.2.7.7.7 1.2 0 .4-.3.6-.7.4l-8.8-5.1c-.4-.2-.7-.7-.7-1.2s.3-.7.7-.4z"/><path class="st20" d="M307 116.6l8.8 5.1c.4.2.7.7.7 1.2 0 .4-.3.6-.7.4l-8.8-5.1c-.4-.2-.7-.7-.7-1.2s.3-.7.7-.4z"/><path class="st4" d="M304.3 118.9l11.5 6.6c.4.2.7.7.7 1.2 0 .4-.3.6-.7.4l-11.5-6.6c-.4-.2-.7-.7-.7-1.2s.3-.6.7-.4z"/><path class="st20" d="M304.3 118.9l11.5 6.6c.4.2.7.7.7 1.2 0 .4-.3.6-.7.4l-11.5-6.6c-.4-.2-.7-.7-.7-1.2s.3-.6.7-.4z"/><path class="st4" d="M299.2 131.5l1.9 1.1c.4.2.7.7.7 1.2 0 .4-.3.6-.7.4l-1.9-1.1c-.4-.2-.7-.7-.7-1.2s.3-.6.7-.4z"/><path class="st18" d="M299.2 131.5l1.9 1.1c.4.2.7.7.7 1.2 0 .4-.3.6-.7.4l-1.9-1.1c-.4-.2-.7-.7-.7-1.2s.3-.6.7-.4z"/><path class="st4" d="M304.3 134.5l11.5 6.6c.4.2.7.7.7 1.2s-.3.6-.7.4l-11.5-6.6c-.4-.2-.7-.7-.7-1.2s.3-.7.7-.4z"/><path class="st20" d="M304.3 134.5l11.5 6.6c.4.2.7.7.7 1.2s-.3.6-.7.4l-11.5-6.6c-.4-.2-.7-.7-.7-1.2s.3-.7.7-.4z"/></g></g><g id="Window_4_"><g id="XMLID_3556_"><path class="st3" d="M410.8 150.3v76.4c0 1 .7 2.2 1.6 2.7l43.9 25.3c.2.1.4.2.5.2h.4s.1 0 .1-.1c0 0 .1 0 .1-.1.1-.1.2-.3.3-.4.1-.2.2-.5.2-.8v-76c0-1-.7-2.2-1.6-2.7l-43.9-25.3c-.4-.2-.8-.3-1.1-.1 0 0-.1 0-.1.1l-.1.1v.1s0 .1-.1.1c0 .1-.1.1-.1.2v.2c-.1 0-.1 0-.1.1z" id="XMLID_3571_" opacity=".8"/><g id="XMLID_3563_"><path class="st10" d="M411.3 149.2c.3-.1.7-.1 1.1.1l43.9 25.3c.9.5 1.6 1.7 1.6 2.7v5.2l2.5-1.5v-5c0-1-.7-2.2-1.6-2.7L414.9 148c-.5-.3-.9-.3-1.2-.1-.2.1-2.1 1.2-2.4 1.3z" id="XMLID_3568_"/><path id="XMLID_3567_" class="st10" d="M410.8 150.3c0-1 .7-1.4 1.6-.9l43.9 25.3c.9.5 1.6 1.7 1.6 2.7v5.2l-47-27.1v-5.2z"/><g id="XMLID_3566_" class="st14"><path class="st10" d="M412.4 149.4l43.9 25.3c.4.3.8.7 1.1 1.2l2.5-1.4c-.3-.5-.7-.9-1.1-1.2L414.9 148c-.5-.3-.9-.3-1.2-.1-.3.2-2.1 1.2-2.4 1.4.3-.2.7-.2 1.1.1z"/></g></g><g id="XMLID_3559_"><path id="XMLID_3562_" class="st3" d="M455.5 176.8c.5.3.9 1.1.9 1.9 0 .8-.4 1.1-.9.9-.5-.3-.9-1.1-.9-1.9 0-.8.4-1.2.9-.9z"/><path id="XMLID_3561_" class="st3" d="M452.3 174.9c.5.3.9 1.1.9 1.9 0 .8-.4 1.1-.9.9-.5-.3-.9-1.1-.9-1.9 0-.8.4-1.1.9-.9z"/><path id="XMLID_3560_" class="st3" d="M449.1 173.1c.5.3.9 1.1.9 1.9 0 .8-.4 1.1-.9.9-.5-.3-.9-1.1-.9-1.9 0-.8.4-1.2.9-.9z"/></g><path class="st2" d="M457.3 254.7c.1 0 .1-.1.2-.1.1-.1.3-.2.5-.3.1-.1.2-.1.3-.2.1-.1.3-.2.4-.2.1-.1.8-.4.9-.5.1-.1.2-.1.2-.1.1-.1.2-.1.3-.2.1-.1.2-.2.2-.3.1-.2.2-.5.2-.8v-70.8l-2.5 1.5v70.8c0 .3-.1.6-.2.8-.1.2-.2.3-.3.4h-.2z" id="XMLID_3558_" opacity=".9"/></g><g id="XMLID_2916_"><g id="XMLID_3493_"><path id="XMLID_3552_" class="st10" d="M414.4 164.3c0-.1 0-.2.1-.2l1.1-1h.1l.1.1v1.2s0 .1-.1.1l-.6.6.6 1.2c0 .1.1.2.1.2v1.1h-.1l-.1-.1-1.1-2.4c-.1-.1-.1-.2-.1-.3v-.5z"/><path id="XMLID_3548_" class="st10" d="M418.6 163.1c0-.1 0-.1.1-.1h.2l.4.2.1.1v.3l-2 6.1c0 .1 0 .1-.1.1h-.2l-.4-.2-.1-.1v-.3l2-6.1z"/><path id="XMLID_3541_" class="st10" d="M421.6 169c0 .1 0 .2-.1.2l-1.1 1h-.1l-.1-.1v-1.2s0-.1.1-.1l.6-.6-.6-1.2c0-.1-.1-.2-.1-.2v-1.1h.1l.1.1 1.1 2.4c.1.1.1.2.1.3v.5z"/><path id="XMLID_3522_" class="st10" d="M424.8 172.1l.1.1v1.2h-.1l-.5-.3-.1-.1v-1.2h.1l.5.3z"/><path id="XMLID_3499_" class="st10" d="M426.6 173.1l.1.1v1.2h-.1l-.5-.3-.1-.1v-1.1h.1l.5.2z"/><path id="XMLID_3497_" class="st10" d="M428.4 174.2l.1.1v1.2h-.1l-.5-.3-.1-.1v-1.2h.1l.5.3z"/></g><path id="XMLID_3489_" class="st10" d="M414.9 171.2l26.4 15.2c.3.2.6.6.6.9 0 .3-.3.5-.6.3l-26.4-15.2c-.3-.2-.6-.6-.6-.9 0-.4.3-.5.6-.3z"/><path id="XMLID_3488_" class="st1" d="M423.4 190.7l26.4 15.2c.3.2.6.6.6.9s-.3.5-.6.3l-26.4-15.2c-.3-.2-.6-.6-.6-.9 0-.3.3-.5.6-.3z"/><path id="XMLID_3480_" class="st1" d="M423.4 200.5l12.6 7.3c.3.2.6.6.6.9s-.3.5-.6.3l-12.6-7.3c-.3-.2-.6-.6-.6-.9 0-.4.3-.5.6-.3z"/><path id="XMLID_3458_" class="st10" d="M443.5 187.7l10.5 6c.3.2.6.6.6.9 0 .3-.3.5-.6.3l-10.5-6c-.3-.2-.6-.6-.6-.9s.2-.5.6-.3z"/><path id="XMLID_3455_" class="st10" d="M414.9 224.9l26.4 15.2c.3.2.6.6.6.9 0 .3-.3.5-.6.3l-26.4-15.2c-.3-.2-.6-.6-.6-.9 0-.4.3-.5.6-.3z"/><path id="XMLID_3452_" class="st10" d="M443.5 241.4l10.5 6c.3.2.6.6.6.9 0 .3-.3.5-.6.3l-10.5-6c-.3-.2-.6-.6-.6-.9 0-.4.2-.5.6-.3z"/><path id="XMLID_3448_" class="st10" d="M443.5 226.7l10.5 6c.3.2.6.6.6.9 0 .3-.3.5-.6.3l-10.5-6c-.3-.2-.6-.6-.6-.9 0-.3.2-.4.6-.3z"/><path id="XMLID_3288_" class="st10" d="M443.5 231.6l10.5 6c.3.2.6.6.6.9 0 .3-.3.5-.6.3l-10.5-6c-.3-.2-.6-.6-.6-.9 0-.3.2-.5.6-.3z"/><path id="XMLID_3285_" class="st10" d="M434.5 221.6l5.9 3.4c.3.2.6.6.6.9 0 .3-.3.5-.6.3l-5.9-3.4c-.3-.2-.6-.6-.6-.9 0-.4.3-.5.6-.3z"/><g id="XMLID_3242_"><path id="XMLID_3244_" class="st13" d="M414.9 176.1l15.4 8.9c.3.2.6.6.6.9s-.3.5-.6.3l-15.4-8.9c-.3-.2-.6-.6-.6-.9 0-.4.3-.5.6-.3z"/></g><g id="XMLID_3239_"><path id="XMLID_3241_" class="st4" d="M414.9 180.9l5.2 3c.3.2.6.6.6.9 0 .3-.3.5-.6.3l-5.2-3c-.3-.2-.6-.6-.6-.9 0-.3.3-.4.6-.3z"/><path id="XMLID_3240_" class="st18" d="M414.9 180.9l5.2 3c.3.2.6.6.6.9 0 .3-.3.5-.6.3l-5.2-3c-.3-.2-.6-.6-.6-.9 0-.3.3-.4.6-.3z"/></g><g id="XMLID_3236_"><path id="XMLID_3238_" class="st4" d="M414.9 185.8l5.2 3c.3.2.6.6.6.9s-.3.5-.6.3l-5.2-3c-.3-.2-.6-.6-.6-.9 0-.3.3-.5.6-.3z"/><path id="XMLID_3237_" class="st18" d="M414.9 185.8l5.2 3c.3.2.6.6.6.9s-.3.5-.6.3l-5.2-3c-.3-.2-.6-.6-.6-.9 0-.3.3-.5.6-.3z"/></g><g id="XMLID_3234_"><path id="XMLID_3235_" class="st4" d="M414.9 190.7l5.2 3c.3.2.6.6.6.9 0 .3-.3.5-.6.3l-5.2-3c-.3-.2-.6-.6-.6-.9 0-.3.3-.5.6-.3z"/></g><path id="XMLID_3233_" class="st18" d="M414.9 190.7l5.2 3c.3.2.6.6.6.9 0 .3-.3.5-.6.3l-5.2-3c-.3-.2-.6-.6-.6-.9 0-.3.3-.5.6-.3z"/><path id="XMLID_3232_" class="st23" d="M423.4 195.6l15.4 8.9c.3.2.6.6.6.9 0 .3-.3.5-.6.3l-15.4-8.9c-.3-.2-.6-.6-.6-.9 0-.4.3-.5.6-.3z"/><path id="XMLID_3228_" class="st23" d="M440.9 205.7l6.7 3.9c.3.2.6.6.6.9 0 .3-.3.5-.6.3l-6.7-3.9c-.3-.2-.6-.6-.6-.9.1-.3.3-.5.6-.3z"/><path id="XMLID_3205_" class="st18" d="M423.4 195.6l15.4 8.9c.3.2.6.6.6.9 0 .3-.3.5-.6.3l-15.4-8.9c-.3-.2-.6-.6-.6-.9 0-.4.3-.5.6-.3z"/><path id="XMLID_3204_" class="st18" d="M440.9 205.7l6.7 3.9c.3.2.6.6.6.9 0 .3-.3.5-.6.3l-6.7-3.9c-.3-.2-.6-.6-.6-.9.1-.3.3-.5.6-.3z"/><g id="XMLID_3201_"><path id="XMLID_3203_" class="st4" d="M414.9 195.6l5.2 3c.3.2.6.6.6.9 0 .3-.3.5-.6.3l-5.2-3c-.3-.2-.6-.6-.6-.9 0-.4.3-.5.6-.3z"/><path id="XMLID_3202_" class="st18" d="M414.9 195.6l5.2 3c.3.2.6.6.6.9 0 .3-.3.5-.6.3l-5.2-3c-.3-.2-.6-.6-.6-.9 0-.4.3-.5.6-.3z"/></g><g id="XMLID_3198_"><path id="XMLID_3200_" class="st13" d="M432.5 186.2l6.7 3.9c.3.2.6.6.6.9 0 .3-.3.5-.6.3l-6.7-3.9c-.3-.2-.6-.6-.6-.9 0-.4.3-.5.6-.3z"/></g><g id="XMLID_3196_"><path id="XMLID_3197_" class="st13" d="M429.7 209l15.4 8.9c.3.2.6.6.6.9s-.3.5-.6.3l-15.4-8.9c-.3-.2-.6-.6-.6-.9.1-.3.3-.5.6-.3z"/></g><g id="XMLID_3194_"><path id="XMLID_3195_" class="st13" d="M438.6 219l15.4 8.9c.3.2.6.6.6.9s-.3.5-.6.3l-15.4-8.9c-.3-.2-.6-.6-.6-.9 0-.3.3-.4.6-.3z"/></g><g id="XMLID_3094_"><path id="XMLID_3193_" class="st13" d="M447.3 219.1l6.7 3.9c.3.2.6.6.6.9 0 .3-.3.5-.6.3l-6.7-3.9c-.3-.2-.6-.6-.6-.9 0-.3.3-.4.6-.3z"/></g><g id="XMLID_2998_"><path id="XMLID_2999_" class="st1" d="M447.3 238.5l6.7 3.9c.3.2.6.6.6.9 0 .3-.3.5-.6.3l-6.7-3.9c-.3-.2-.6-.6-.6-.9 0-.4.3-.5.6-.3z"/></g><g id="XMLID_2995_"><path id="XMLID_2997_" class="st4" d="M423.4 185.8l15.4 8.9c.3.2.6.6.6.9 0 .3-.3.5-.6.3l-15.4-8.9c-.3-.2-.6-.6-.6-.9 0-.3.3-.5.6-.3z"/><path id="XMLID_2996_" class="st5" d="M423.4 185.8l15.4 8.9c.3.2.6.6.6.9 0 .3-.3.5-.6.3l-15.4-8.9c-.3-.2-.6-.6-.6-.9 0-.3.3-.5.6-.3z"/></g><g id="XMLID_2918_"><path id="XMLID_2922_" class="st13" d="M440.9 196l6.7 3.9c.3.2.6.6.6.9 0 .3-.3.5-.6.3l-6.7-3.9c-.3-.2-.6-.6-.6-.9.1-.4.3-.5.6-.3z"/></g></g></g><g id="Mouse_2_"><path class="st8" d="M336.1 251.9l9.4 5.4c3 1.7 7.6 1.5 10.4-.5l15.5-11.4c2.8-2 2.6-5-.4-6.8l-4.7-2.7c-3-1.7-7.9-1.9-10.9-.3L336.3 246c-3.1 1.6-3.2 4.2-.2 5.9z"/><path class="st2" d="M371.7 240.5l-10.8 8.4-7.9 6.2c-.8.4-1.7.6-2.5.6-1.3.1-2.7-.2-3.8-.8l-8.4-4.9c-3-1.7-3.7-5.7-1.7-8.5.1-.1.2-.2.2-.3 1.6-2.2 4-3.7 6.8-4.3l4.3-.9c6.9-1.4 12.6-2.1 13.3-1.6l10.5 6.1z"/><path class="st10" d="M365.7 245.2l.6-.5-9.5-5.5 8.3-2.6c-.3-.2-.6-.3-.8-.5l-8.3 2.6-5.7-3.3c-.4.1-.7.1-1.1.2l16.5 9.6z"/><path class="st9" d="M354 254.6l7.6-5.5 10.2-7.4v-1.3h-.1c-.8-.3-5.2 1.1-10.5 3.2l-3.5 1.4c-1.1.4-2.1 1-3 1.8-2.5 2.1-4.1 5.3-4.1 8.7v.2c.9 0 1.8-.2 2.5-.6l.9-.5z"/></g></g></g><g id="Plant"><g id="Pot_1_"><g id="XMLID_3653_"><g id="XMLID_3654_"><g id="XMLID_3655_"><g id="XMLID_3717_"><path id="XMLID_3718_" class="st4" d="M372.7 405.5c-10.4-10.7-16.5-54.3-6.4-62.8h51.5c10.1 8.5 4 52.1-6.3 62.8l-.3.3-.4.4c-.3.3-.6.6-.9.8-.1.1-.2.1-.2.2-.3.2-.5.4-.8.6-.4.3-.9.6-1.3.9-8.5 5-22.4 5-30.9 0-.5-.3-.9-.6-1.4-.9-.3-.2-.5-.4-.7-.6-.1-.1-.2-.2-.3-.2-.3-.3-.6-.5-.9-.8l-.4-.4-.3-.3z"/></g><g id="XMLID_3668_" class="st14"><path id="XMLID_3669_" class="st10" d="M372.7 405.5c-10.4-10.7-16.5-54.3-6.4-62.8h51.5c10.1 8.5 4 52.1-6.3 62.8l-.3.3-.4.4c-.3.3-.6.6-.9.8-.1.1-.2.1-.2.2-.3.2-.5.4-.8.6-.4.3-.9.6-1.3.9-8.5 5-22.4 5-30.9 0-.5-.3-.9-.6-1.4-.9-.3-.2-.5-.4-.7-.6-.1-.1-.2-.2-.3-.2-.3-.3-.6-.5-.9-.8l-.4-.4-.3-.3z"/></g><g id="XMLID_3666_"><path id="XMLID_3667_" class="st4" d="M413.4 339.3c11.8 6.9 11.8 18 0 24.8-11.8 6.9-30.8 6.9-42.6 0s-11.8-18 0-24.8c11.8-6.9 30.8-6.9 42.6 0z"/></g><g id="XMLID_3664_" opacity=".7"><path id="XMLID_3665_" class="st10" d="M413.4 339.3c11.8 6.9 11.8 18 0 24.8-11.8 6.9-30.8 6.9-42.6 0s-11.8-18 0-24.8c11.8-6.9 30.8-6.9 42.6 0z"/></g><g id="XMLID_3662_"><path id="XMLID_3663_" class="st4" d="M407.7 342.6c8.6 5 8.6 13.2 0 18.2s-22.6 5-31.3 0c-8.6-5-8.6-13.2 0-18.2 8.7-5 22.7-5 31.3 0z"/></g><g id="XMLID_3660_" opacity=".3"><path id="XMLID_3661_" d="M407.7 342.6c8.6 5 8.6 13.2 0 18.2s-22.6 5-31.3 0c-8.6-5-8.6-13.2 0-18.2 8.7-5 22.7-5 31.3 0z"/></g><g id="XMLID_3656_"><path id="XMLID_3659_" class="st0" d="M376.5 351.3c8.6-5 22.6-5 31.3 0 2.4 1.4 4.1 3 5.2 4.8-1.1 1.7-2.8 3.4-5.2 4.8-8.6 5-22.6 5-31.3 0-2.4-1.4-4.1-3-5.2-4.8 1.1-1.8 2.8-3.4 5.2-4.8z"/></g></g></g></g><g id="Plants_20_"><g id="XMLID_3595_"><g id="XMLID_3645_"><path id="XMLID_3652_" class="st10" d="M387.9 329.3c-.6-1.2-1.1-2.4-1.3-3.8-.6-3.1.2-6.7 2.7-8.7 1-.8 2.3-1.3 2.8-2.5.2-.7.1-1.4 0-2.1-.5-2.7-1.4-5.4-.6-8.1.7-2.4 2.7-4.3 5-5.4 2.3-1.1 4.8-1.5 7.3-1.9 1.3-.2 2.7-.4 3.8-1.1 1.4-.8 1.9-2.2 2.8-3.5 1-1.4 2.3-2.6 3.5-3.8 2.6-2.3 5.9-4.3 9.5-4.1 7.6.3 7.4 6.9 5.2 11.8s-2.8 6.5 2 11.7c4.7 5.1 4.7 11.5-.9 15-5.6 3.6-9.3 4-7.1 10.9 2 6.1 3.2 11.3-2.4 17.8-3.6 4.2-8.6 7.2-14.9 7-1.8-.1-5.7-.9-7.3-1.7-1.7-.9-.6-2.2-1.1-3.9-1.2-3.6-2.5-7.3-3.7-10.9-1-2.8-1.7-5.9-3-8.6-.8-1.3-1.6-2.7-2.3-4.1z"/></g><g id="XMLID_3643_" opacity=".25"><path id="XMLID_3644_" d="M387.9 329.3c-.6-1.2-1.1-2.4-1.3-3.8-.6-3.1.2-6.7 2.7-8.7 1-.8 2.3-1.3 2.8-2.5.2-.7.1-1.4 0-2.1-.5-2.7-1.4-5.4-.6-8.1.7-2.4 2.7-4.3 5-5.4 2.3-1.1 4.8-1.5 7.3-1.9 1.3-.2 2.7-.4 3.8-1.1 1.4-.8 1.9-2.2 2.8-3.5 1-1.4 2.3-2.6 3.5-3.8 2.6-2.3 5.9-4.3 9.5-4.1 7.6.3 7.4 6.9 5.2 11.8s-2.8 6.5 2 11.7c4.7 5.1 4.7 11.5-.9 15-5.6 3.6-9.3 4-7.1 10.9 2 6.1 3.2 11.3-2.4 17.8-3.6 4.2-8.6 7.2-14.9 7-1.8-.1-5.7-.9-7.3-1.7-1.7-.9-.6-2.2-1.1-3.9-1.2-3.6-2.5-7.3-3.7-10.9-1-2.8-1.7-5.9-3-8.6-.8-1.3-1.6-2.7-2.3-4.1z"/></g><g id="XMLID_3641_"><path id="XMLID_3642_" class="st13" d="M398.2 357c.2-.1.4-.3.4-.5-.3-37.4 20.3-59.8 20.5-60 .2-.2.2-.6 0-.8-.2-.2-.6-.2-.8 0-.2.2-21.1 22.9-20.8 60.8 0 .3.3.6.6.6 0-.1 0-.1.1-.1z"/></g><g id="XMLID_3598_"><path id="XMLID_3640_" class="st13" d="M404.2 322.2s.1 0 .1-.1c6.7-4.2 18.7-7.4 18.8-7.4.3-.1.5-.4.4-.7-.1-.3-.4-.5-.7-.4-.5.1-12.3 3.2-19.1 7.5-.3.2-.3.5-.2.8.2.3.4.4.7.3z"/></g><g id="XMLID_3596_"><path id="XMLID_3597_" class="st13" d="M406.3 317c.3-.1.5-.5.3-.7-2.3-5.8-6-10.2-6.2-10.4-.2-.2-.6-.3-.8-.1-.2.2-.3.6-.1.8 0 0 3.7 4.5 6 10.1.2.3.5.4.8.3z"/></g></g><g id="XMLID_3098_"><path id="XMLID_3594_" class="st10" d="M392.9 361s-7 2.6-16.4.6c-9.4-2-15.2-10.8-15.2-10.8s10.2-4.1 16.1-4.5c0 0-9.2-1.6-17.9.4 0 0-5.5-2-4.4-11.2 0 0 5.1-3.8 17-2.3 0 0-5.9-4.2-16.3-5.5-.8 0 .3-12 1.3-17.3 1-5.4 3-4.5 7.2-4.1 4.2.5 16.8 3.3 18.4 6.4 1.6 3.1 0 10.9 0 10.9s3.5-4.3 3.5-10.3c0 0 4.7 1.7 7.3 4 2.5 2.2 3.8 4 4.5 5.7-.6 4.2-2.6 10.6-5.4 14.2 0 0 6.3-4 7.7-11.5 0 0 5 6.4 5 14.7-.1 9.3-4.3 16.3-12.4 20.6z"/><path id="XMLID_3719_" d="M392.9 361s-7 2.6-16.4.6c-9.4-2-15.2-10.8-15.2-10.8s10.2-4.1 16.1-4.5c0 0-9.2-1.6-17.9.4 0 0-5.5-2-4.4-11.2 0 0 5.1-3.8 17-2.3 0 0-5.9-4.2-16.3-5.5-.8 0 .3-12 1.3-17.3 1-5.4 3-4.5 7.2-4.1 4.2.5 16.8 3.3 18.4 6.4 1.6 3.1 0 10.9 0 10.9s3.5-4.3 3.5-10.3c0 0 4.7 1.7 7.3 4 2.5 2.2 3.8 4 4.5 5.7-.6 4.2-2.6 10.6-5.4 14.2 0 0 6.3-4 7.7-11.5 0 0 5 6.4 5 14.7-.1 9.3-4.3 16.3-12.4 20.6z" opacity=".1" fill="#5e17eb"/><g id="XMLID_3578_"><path id="XMLID_3579_" class="st13" d="M394.2 360.2c-.2-.1-.3-.2-.3-.5-1.4-17.9-21.4-45.7-30.2-51.4-.2-.2-.3-.5-.2-.7.2-.3.5-.3.7-.2 9 5.7 29.3 34 30.7 52.2 0 .3-.2.6-.5.6h-.2z"/></g></g></g></g></g><g id="Character"><g id="Character_1_"><g id="XMLID_179_"><g id="XMLID_183_"><g id="XMLID_191_"><path id="XMLID_192_" class="st28" d="M213.5 349c0-.2-3.2-11.8-3.2-11.8s1 1.1 7.7-.7c3.4-.9 7.3-3.1 7.3-3.1l1.9 8.5c1.8 3.3 7.7 1.8 14.2 1 1.1-.1 2.2-.3 3.3-.5h.1c3.5-.2 7 1.9 3.4 4.9-3.6 3-9.6 4.1-15.2 5.1-6.6 1.3-18.3 3.2-19.5-3.4z"/></g><g id="XMLID_184_"><path id="XMLID_190_" class="st9" d="M260 348s.7 1.3.5 3.6c-.1 1.3-3.3 5.7-9 8.4-5.6 2.7-12.6 2.9-15.9 3.8-3.3.9-6.3 2.8-10.1 3.8-4 1-7.7 1.4-11.5-1.1-.7-1.1-1.5-3.6-1.3-3.9.7-.8 47.3-14.6 47.3-14.6z"/><path id="XMLID_189_" class="st4" d="M228.3 343.1c2.5 1.7 7.6.5 13.2-.1 5.2-.6 11.1-2.4 14.7-1.2 3.6 1.2 6.5 5.4 1.7 10.8-1.4 1.6-4.3 4.3-6.7 5.1-6 2.1-11.3 2.3-15.2 3.3-5 1.2-7.7 3.4-12.4 4-6 .7-9.8-.8-10.8-2.4-1-1.6-2-14.5.6-14.2 0 0 1.1 4.2 10.9.1 4.2-1.9 4.1-4.5 4-5.4z"/><path id="XMLID_188_" class="st7" d="M228.3 343.1c2.5 1.7 7.6.5 13.2-.1 5.2-.6 11.1-2.4 14.7-1.2 3.6 1.2 6.5 5.4 1.7 10.8-1.4 1.6-4.3 4.3-6.7 5.1-6 2.1-11.3 2.3-15.2 3.3-5 1.2-7.7 3.4-12.4 4-6 .7-9.8-.8-10.8-2.4-1-1.6-2-14.5.6-14.2 0 0 1.1 4.2 10.9.1 4.2-1.9 4.1-4.5 4-5.4z"/><path id="XMLID_187_" class="st29" d="M244.9 350s-.6-5.4-4.6-6.9c0 0-1.3-.6-2.2.3 0 0 3.7.5 5 6.9 0 0 .2.4 1 .3.2 0 .8-.2.8-.6z"/><path id="XMLID_186_" class="st29" d="M234.6 343.8s0-.2.9-.4c.7-.1 1.1.1 1.1.1s3 1.3 3.6 7c0 0 0 .7-.9.9-.9.2-1.1-.6-1.1-.6s-.6-5.9-3.6-7z"/><path id="XMLID_185_" class="st29" d="M231.4 343.9s.2-.3.9-.3c.9 0 1.1.3 1.1.3s2.1 2.2 2.2 6.9c0 0 .1.8-1 .9-1.1.1-1-.8-1-.8s-.4-6-2.2-7z"/></g></g><g id="XMLID_180_"><g id="XMLID_181_"><path id="XMLID_182_" class="st2" d="M209.3 270.2c4.9 14.7 17.9 65.5 17.9 65.5s-8.5 7.6-17.6 4.1l-21.9-63.2 21.6-6.4z"/></g></g></g><g id="XMLID_166_"><g id="XMLID_169_"><g id="XMLID_177_"><path id="XMLID_178_" class="st28" d="M247.1 365.4c-1-1.5-4.8-11.8-4.8-11.8s3.9 2.2 10.7.6c3.4-.8 6.6-4.5 6.6-4.5l2.9 9.9c1.7 3.3 7.2 2.2 13.7 1.6 1.1-.1 2.2-.3 3.3-.4h.1c3.5-.1 7 2.1 3.3 5s-9.7 3.9-15.3 4.7c-6.6 1.1-16.7.5-20.5-5.1z"/></g><g id="XMLID_170_"><path id="XMLID_176_" class="st9" d="M297.6 365.1s.7 1.5.4 3.8c-.2 1.4-3.7 6-9.8 8.7-6.1 2.7-13.6 2.7-17.2 3.7-3.5.9-6.8 2.9-11 3.8-4.3.9-8.3 1.3-12.3-1.5-.7-1.2-1.5-3.9-1.3-4.2.7-.7 51.2-14.3 51.2-14.3z"/><path id="XMLID_175_" class="st4" d="M263.6 358.9c.4.3.8.5 1.2.8.4.2.9.2 1.4.3 1.1.1 2.2.1 3.3.1 2.7-.1 5.5-.5 8.2-.8 5.6-.5 12-2.3 15.8-.9 3.8 1.4 7.2 6 1.9 11.6-1.5 1.6-4.7 4.4-7.1 5.4-6.3 2.6-12.8 2.1-17 3.1-5.4 1.2-8.4 3.5-13.4 4-6.4.6-10.5-1.2-11.5-2.9-.6-1 .1-6-.7-10-.7-3.4-.5-5.7.7-5.5.2.4.6.8.9 1.2.4.5.9.9 1.4 1.1.8.4 1.6.6 2.4.8 1.5.4 3 .7 4.5.6.4 0 .9-.1 1.2-.4.4-.4.6-1 .7-1.5l.3-1.5c.1-.3.1-.5.3-.8.2-.3.5-.4.8-.6.9-.5 1.9-1 2.5-1.9.4-.7.6-1.5.7-2.3 0-.1.1-.3.2-.4.2-.1.5 0 .6.1.3.1.5.2.7.4z"/><path id="XMLID_174_" class="st7" d="M263.6 358.9c.4.3.8.5 1.2.8.4.2.9.2 1.4.3 1.1.1 2.2.1 3.3.1 2.7-.1 5.5-.5 8.2-.8 5.6-.5 12-2.3 15.8-.9 3.8 1.4 7.2 6 1.9 11.6-1.5 1.6-4.7 4.4-7.1 5.4-6.3 2.6-12.8 2.1-17 3.1-5.4 1.2-8.4 3.5-13.4 4-6.4.6-10.5-1.2-11.5-2.9-.6-1 .1-6-.7-10-.7-3.4-.5-5.7.7-5.5.2.4.6.8.9 1.2.4.5.9.9 1.4 1.1.8.4 1.6.6 2.4.8 1.5.4 3 .7 4.5.6.4 0 .9-.1 1.2-.4.4-.4.6-1 .7-1.5l.3-1.5c.1-.3.1-.5.3-.8.2-.3.5-.4.8-.6.9-.5 1.9-1 2.5-1.9.4-.7.6-1.5.7-2.3 0-.1.1-.3.2-.4.2-.1.5 0 .6.1.3.1.5.2.7.4z"/><path id="XMLID_173_" class="st29" d="M281.2 366.8s-.5-5.9-4.7-7.5c0 0-1.4-.7-2.4.3 0 0 4 .7 5.1 7.6 0 0 .2.5 1.1.3.3-.1.9-.2.9-.7z"/><path id="XMLID_172_" class="st29" d="M270.4 359.9s0-.2 1-.4c.7-.1 1.2.2 1.2.2s3.2 1.5 3.6 7.6c0 0 0 .7-1 .9-1 .2-1.1-.6-1.1-.6s-.5-6.4-3.7-7.7z"/><path id="XMLID_171_" class="st29" d="M266.9 360s.2-.4.9-.3c1 0 1.2.4 1.2.4s2.2 2.4 2.1 7.5c0 0 .1.9-1.1.9-1.2.1-1-.9-1-.9s-.2-6.5-2.1-7.6z"/></g></g><g id="XMLID_167_"><path id="XMLID_168_" class="st3" d="M243.8 287.6c3.9 11.9 13.7 45.7 18.2 63 0 0-8.1 7.3-18.5 6.6l-25.1-65.1 10-6.2 15.4 1.7z"/></g></g><g id="XMLID_144_"><g id="XMLID_164_"><path id="XMLID_165_" class="st3" d="M161.2 450c.9 0 1.6-.7 1.6-1.6V343.8c0-.9-.7-1.6-1.6-1.6-.9 0-1.6.7-1.6 1.6v104.6c0 .9.7 1.6 1.6 1.6z"/></g><g id="XMLID_162_"><path id="XMLID_163_" class="st3" d="M96.5 412c.6 0 1.3-.4 1.5-1l32.1-81.2c.3-.8-.1-1.8-.9-2.1-.8-.3-1.8.1-2.1.9L95 409.7c-.3.8.1 1.8.9 2.1.2.1.4.2.6.2z"/></g><g id="XMLID_160_"><path id="XMLID_161_" class="st3" d="M100.4 402.2c.4 0 .9-.2 1.2-.5l59.7-63.2 59.6 62.9c.6.7 1.6.7 2.3.1.7-.6.7-1.6.1-2.3l-60.8-64.1c-.3-.3-.7-.5-1.2-.5-.4 0-.9.2-1.2.5l-60.9 64.4c-.6.7-.6 1.7.1 2.3.3.3.7.4 1.1.4z"/></g><g id="XMLID_158_"><path id="XMLID_159_" class="st3" d="M225.9 412c.2 0 .4 0 .6-.1.8-.3 1.2-1.3.9-2.1l-32.1-81.2c-.3-.8-1.3-1.2-2.1-.9-.8.3-1.2 1.3-.9 2.1l32.1 81.2c.3.6.9 1 1.5 1z"/></g><g id="XMLID_156_"><path id="XMLID_157_" class="st4" d="M226.7 307.9c1.2-6.6-4.2-11.7-14.2-18.5-10.1-6.8-22.9-13.5-29.1-16.4-8.4-3.9-17-3.5-27.8 2-15 7.7-60 35-60 35s67.3 38 80.3 36.3c13-1.7 45.3-22.8 47.9-30.2 2.5-7.2 2.9-8.2 2.9-8.2z"/></g><g id="XMLID_154_" opacity=".4"><path id="XMLID_155_" class="st10" d="M226.7 307.9c1.2-6.6-4.2-11.7-14.2-18.5-10.1-6.8-22.9-13.5-29.1-16.4-8.4-3.9-17-3.5-27.8 2-15 7.7-60 35-60 35s67.3 38 80.3 36.3c13-1.7 45.3-22.8 47.9-30.2 2.5-7.2 2.9-8.2 2.9-8.2z"/></g><g id="XMLID_152_"><path id="XMLID_153_" class="st4" d="M169.3 338.4c9.7 8.7 19.8 1.2 35.7-9.2 18.1-11.7 21.6-21.3 21.6-21.3s0 7.2-1.3 10.6c-1.3 3.4-4.3 7.2-17.3 16.2s-22.5 13.5-31.3 15.2l-6.9-1"/></g><path id="XMLID_151_" class="st6" d="M205.1 329.3c18.1-11.7 21.6-21.3 21.6-21.3s0 7.2-1.3 10.6c-1.3 3.4-4.3 7.2-17.3 16.2s-22.5 13.5-31.3 15.2l-6.9-1-.5-10.5c9.6 8.7 19.7 1.2 35.7-9.2z"/><g id="XMLID_149_"><path id="XMLID_150_" class="st10" d="M99 399.2l-5 11.4c0 .1 0 .2-.1.3v.2c0 .2.3.6.6.8.7.5 1.9.5 2.7.1.3-.1.5-.3.5-.5v-.2l4.6-10.7-3.3-1.4z"/></g><g id="XMLID_147_"><path id="XMLID_148_" class="st10" d="M223.7 399.7l4.2 11.2v.5c0 .2-.3.5-.6.7-.7.4-1.9.4-2.6 0-.3-.2-.4-.3-.5-.5v-.2l-3.9-10.5 3.4-1.2z"/></g><g id="XMLID_145_"><path id="XMLID_146_" class="st10" d="M159.4 440.3v9.3c0 .3.2.6.5.8.7.4 1.9.4 2.7 0 .4-.2.5-.5.5-.8v-9.3c-1.2-.6-2.5-.6-3.7 0z"/></g></g><g id="XMLID_125_"><g id="XMLID_128_"><path id="XMLID_143_" class="st2" d="M122.5 268.7c3.8 4.5 38.7-5.6 48-6.8 14.9-2 27-3.5 32.1-1.9 5.1 1.6 7.2 4.2 8.8 10.2 1.8 7.1 2.8 10.8 2.8 10.8s-24.8 9.5-44.3 11.8c-19.6 2.3-47.4-24.1-47.4-24.1z"/></g><g id="XMLID_126_"><path id="XMLID_127_" class="st3" d="M116 275.3c-3.9 14.7-7.3 31.9 1.6 41.3 6 6.3 36.3 22.7 55.8 16.3 19.2-6.4 59.1-36 63.1-38.9 4-3 7.6-5 7.3-6.3-5.4-17.8-13.2-19.2-27.8-16-17.8 3.9-56.9 19.9-56.9 19.9L116 275.3z"/></g></g><g id="XMLID_122_"><g id="XMLID_123_"><path id="XMLID_124_" class="st28" d="M204.5 180.5l-13.4 15.2-21.7-10.3 15.2-21z"/></g></g><g id="XMLID_117_"><g id="XMLID_120_"><path id="XMLID_121_" class="st31" d="M221.2 151.7s5.5 7.9 4.9 8.8c-.6.8-4.5 1.6-4.5 1.6l-.4-10.4z"/></g><circle cx="221.1" cy="150.3" r="6" fill="none" stroke="#263238" stroke-width="1.207" stroke-miterlimit="10"/><g id="XMLID_118_"><path id="XMLID_119_" class="st28" d="M205.9 129.7c10.8 2 14 6.7 15.4 23.7 1.5 17.8-.2 23.5-2.5 25.9-1.5 1.7-10.3 2.2-14.8 1-5.6-1.4-18.2-5.6-24.3-14.4-7.2-10.4-9.3-24.7-2-30.7 10.2-8.5 23.8-6.3 28.2-5.5z"/></g><path class="st31" d="M204.5 180.5c4.7 1.1 11.7.4 13.8-.8-.2.1-3.5.9-7.8-.3-4.4-1.2-7.2-3.2-7.2-3.2l1.2 4.3z"/></g><g id="XMLID_110_"><g id="XMLID_114_"><g id="XMLID_115_"><path id="XMLID_116_" class="st9" d="M223.3 136.7c-3 2.1-6.7 3-10.4 3.5.3 2.9-.6 5.8-1.5 8.5-.6 1.9-2.9 7.9-5.3 4.6-1.8-2.4-3.4-4.6-6.8-4-5.6 1-6.2 8.1-2.5 12.4 3.6 4.3 6.9 2.5 6.9 2.5s.5 7.7-3.5 13.1c0 0-6.1 3.7-14.6.9-5.4-1.8-13.1-8.5-16-13.8-7.8-14.5-7.9-28.4 1.6-32.7.9-7 6.3-10.2 12.5-11.8 8.6-2.2 17.5 3.2 25.8-.3 1.7-.7 3.4-1.8 5.1-2.5 1-.4 2.2-.6 3.1 0 .8.5 1.1 1.5 1.3 2.4.4 1.7.5 3.5-.3 5 1.3-.6 2.5-1.2 3.9-1.4 1.4-.2 2.9 0 3.9.9 1 .8 1.5 2.1 1.6 3.4.5 3.7-1.7 7.2-4.8 9.3z"/></g></g><g id="XMLID_111_"><g id="XMLID_112_"><path id="XMLID_113_" class="st9" d="M171.2 134.1l-6.5-3.6c1-1.8 3.3-2.4 5.1-1.4 1.8.9 2.4 3.2 1.4 5z"/></g></g></g><path fill="none" stroke="#263238" stroke-width="1.027" stroke-miterlimit="10" d="M206.2 153.3l20.9-3.9"/><path class="st28" d="M249.9 189.4c-.6-.9-1.8-1.1-2.8-1.5-1.9-.7-3.4-2.2-5.3-3-2.1-.9-4.5-1-6.7-.4-.8.2-1.5.4-2.2.7-1.4.5-2.7 1.3-4 2-5.3 3.1-9.3 10.2-14.5 13.5-1.9 1.2-3.8 2.3-5.5 3.4l12.4 11.1c2.6-2.1 5-4 6.1-4.7 3.1-1.8 6.2-1.9 9.6-2.4 2.4-.3 4.7-1.1 7-1.8.8-.2 1.7-.6 2.1-1.3.4-1-.3-2.2-1.3-2.6-1.1-.4-2.5-.3-3.6-.5-.9-.1-3.3.4-3.8-.5-.3-.5.1-1.1.4-1.5 2.2-2.7 4.9-5.6 8.3-6.4 1.1-.3 2.2-.5 3-1.2.8-.7 1.3-2 .8-2.9z"/><path class="st10" d="M175.5 177c-13.2-7.2-25.2-2.6-29.6 6.7-3.9 8.4-12.2 40.8-12.2 40.8 4 7.5 41.8-47.5 41.8-47.5z"/><path class="st4" d="M173.5 179.6l2-2.6c-14.9-7.1-28.3 2.2-40 20.5-12.7 19.7-19.3 48-19.4 77.9 0 0 2.5 13.4 19.5 20.1 18 7.1 43.1 4.1 50.9-14.6 0 0 .2-18.6 5.8-27.8 3.7-5.9 12.2-19.1 18.6-28.6 5.5-8.2 9.8-27-1.7-33.8-3.4-2-4.8-2.6-9.4-4.8-10.6 3.5-27.7-2.1-26.3-6.3z"/><path d="M173.5 179.7l1.9-2.7c-14.9-7.1-28.3 2.2-40 20.5-12.7 19.7-19.3 48-19.4 77.9 0 0 2.5 13.4 19.5 20.1 18 7.1 43.1 4.1 50.9-14.6 0 0 .2-18.6 5.8-27.8 3.7-5.9 12.2-19.1 18.6-28.6 5.5-8.2 9.8-27-1.7-33.8-3.4-2-4.8-2.6-9.4-4.8-10.5 3.5-27.5-2.1-26.2-6.2z" opacity=".75" fill="#8b5cff"/><path d="M215.7 212.7c.8-3.6 1-7.4.5-10.9-2.7 6.3-6.5 12.2-11.3 17.2-6.1 6.4-13.6 11.4-19.2 18.2-6 7.2-10.2 15.9-15.2 23.7-2 3.1-4.7 9.2-8.5 9.5-4.5.3-8.9-5.2-11.4-9.1-3.9-6.1-7.3-13.7-12.2-19-4.3-4.7-10.9-10.7-16.8-7.9-.4 1.6-.8 3.1-1.2 4.7-.4 1.6-.8 3.2-1.1 4.8v.2c-.3 1.6-.6 3.3-.9 4.9v.3c-.3 1.6-.5 3.2-.8 4.9-1 7-1.5 14.2-1.5 21.4 0 0 2.5 13.4 19.5 20.1 18 7.1 43.1 4.1 50.9-14.6 0 0 .2-18.6 5.8-27.8.6-.9 1.3-2 2-3.3 0-.1.1-.1.1-.2.6-1 1.4-2.1 2.1-3.3 0-.1.1-.1.1-.2 0 0 0-.1.1-.1 1.6-2.5 3.4-5.3 5.3-8.2.3-.4.6-.9.9-1.3 1.8-2.8 3.7-5.6 5.4-8.2.6-.9 1.2-1.8 1.7-2.6.2-.4.5-.7.7-1.1l.6-.9c.1-.1.1-.2.2-.3.1-.2.3-.5.4-.7.1-.1.1-.2.2-.3.2-.3.3-.6.4-.9 0-.1.1-.2.1-.2l.6-1.2v-.1c.2-.4.3-.8.5-1.1 0-.1.1-.2.1-.3.1-.4.3-.7.4-1.1v-.2c.2-.7.5-1.4.7-2.1.4-1.2.6-1.9.8-2.7z" opacity=".1" fill="#27debf"/><path class="st28" d="M284.9 230.8c-.9 1.2-2 2.2-3.1 3.2-4.6 4.1-9.9 6.1-16.1 10.1-5 3.3-12.7 8-19.2 12-7.3 4.6-16.1 8.3-21 9.7-6 1.8-9.4 1.9-13-7.8-1.8-4.8-3.1-9.6-4.7-14.5-2.3-7.2-4.5-14.4-6.6-21.6 0 0-8-19.8 10-29.8 7.8 4.5 10.8 6.3 13.3 15.7 2.9 11.2 7.7 33.4 7.7 33.4 6.4-2.2 12.6-4.9 18.6-7.9 2.3-1.1 5.1-1.9 6.7-4 1.1-1.4 2-2.9 2.9-4.5.8-1.4 1.3-2.9 2.2-4.2 1.6-2.5 3.8-4.5 5.9-6.5.4-.4.9-.8 1.4-.8.6 0 1.2.4 1.5.9.7 1.2 0 2.3-.3 3.5-.4 1.3-.8 2.7-1.2 4 4.6-2.7 8.5-6.3 11.5-10.8.3-.4.5-.8.9-1.1.4-.3.9-.5 1.3-.5 1.2.1 2.4 2.1 2.5 3.2.1 1.1-.2 2.3.1 3.4.3 1 1 1.9 1.3 2.9.3 1 .6 2.2.7 3.2.3 2.4-.6 4.7-1.8 6.8-.6.8-1 1.4-1.5 2z"/><path class="st10" d="M210.1 191.3c6.9 2.8 11.8 5.9 14.9 16.4 3.1 10.5 6.5 27.2 6.5 27.2s.1 3.5-8.3 8.4c-8.3 4.9-16.1 2.2-16.1 2.2l-6.3-20.2c.1 0-11.1-27 9.3-34z"/><g id="XMLID_105_"><path id="XMLID_109_" class="st4" d="M169.9 348.9c-5.5-.3-9.8-4.3-22.9-9.8-24.2-10.1-42.3-18.1-49.2-30.8-6.9-12.7-11.8-49.2-10.1-65 .2-2.1.6-3.8 1.2-5.2l-1.7-.2 4.4-3.7c4.5-3.7 11.9-.4 17.4 2.6 15.8 8.6 28.2 17 38 47.2 7.4 22.7 12.2 43.4 22.4 54.5"/><path id="XMLID_108_" d="M88.9 238.1l-1.7-.2 4.4-3.7c4.5-3.7 11.9-.4 17.4 2.6 15.8 8.6 28.2 17 38 47.2 7.2 22.4 12.1 43.3 22.4 54.5l.5 10.5c-5.5-.3-9.8-4.3-22.9-9.8-24.2-10.1-42.3-18.1-49.2-30.8-6.9-12.7-11.8-49.2-10.1-65 .3-2.1.7-3.9 1.2-5.3z" opacity=".3" fill="#5e17eb"/><g id="XMLID_106_"><path id="XMLID_107_" class="st10" d="M104.4 240.6c15.8 8.6 28.2 17 38 47.2 9.8 30.2 15.1 56.9 34.4 62.1 0 0-8.7 3.5-35.4-7.8-8.5-3.6-18.8-10.1-25.6-13.9-13.3-7.4-21.3-13.6-22.6-15.8-7-12.6-11.8-49.2-10.1-65 1.8-16 13.4-11.1 21.3-6.8z"/></g></g></g></g><g id="Speech_Bubble"><g id="Speech_Bubble_7_"><g id="XMLID_3721_"><path id="XMLID_3751_" class="st4" d="M193.3 106.7l-4.4-8.2 3.5-10.1v-6.2l-10.8 6.2v6.2l4.6 8 .3.3 6.8 3.8z"/><path id="XMLID_3749_" class="st37" d="M193.3 106.7l-4.4-8.2 3.5-10.1v-6.2l-10.8 6.2v6.2l4.6 8 .3.3 6.8 3.8z"/><path id="XMLID_3747_" class="st10" d="M219 32.7c0-2.1-1.4-4.6-3.2-5.6l-2.6-1.5c-1.8-1-4.7-1-6.5 0l-40.3 23.3c-1.8 1-3.2 3.5-3.2 5.6v44.3c0 2.1 1.4 4.6 3.2 5.6l2.6 1.5c1.8 1 4.7 1 6.5 0l13-7.5 4.6 8c.3.5 1.1.4 1.2-.1l4.9-14.1 16.6-9.6c1.8-1 3.2-3.5 3.2-5.6V32.7z"/><path id="XMLID_3727_" class="st37" d="M163.2 98.8c0 2.1 1.4 4.6 3.2 5.6l2.6 1.5c1.6.9 4.1 1 5.9.3-1.5.6-2.7-.3-2.7-2.1V59.8c0-1 .4-2.2.9-3.2l-9.1-5.2c-.6 1-.9 2.2-.9 3.2v44.2z"/><path id="XMLID_3723_" d="M218.9 31.8c-.4-1.4-1.6-1.8-3.1-.9l-40.3 23.3c-.9.5-1.7 1.4-2.3 2.4l-9.1-5.2c.6-1 1.4-1.9 2.3-2.4l40.3-23.3c1.8-1 4.7-1 6.5 0l2.6 1.5c1.5.8 2.8 2.8 3.1 4.6z" opacity=".5" fill="#fff"/></g><path class="st13" d="M178.2 77.2c0-.4.1-.7.2-.9.1-.3.3-.5.5-.9l8.8-14.2c.1-.1.1-.1.1-.2l.1-.1c.1-.1.2-.1.3 0 .1.1.1.2.1.4v5.5c0 .4-.1.8-.3 1.1-.2.3-.3.6-.4.7l-4.5 6.9 4.5 2.1c.1 0 .3.1.4.2.2.1.3.4.3.8v3.9c0 .2 0 .4-.1.6-.1.2-.2.3-.3.4h-.2l-8.8-4c-.2-.1-.4-.2-.5-.3-.1-.1-.2-.4-.2-.7v-1.3zm19.1-21.9l.3-.9c.1-.3.4-.5.6-.7l2.9-1.7c.1-.1.2-.1.3 0 .1.1.1.2.1.4v.3l-7.4 31.5c-.1.3-.2.5-.3.9-.1.3-.4.5-.7.7l-2.9 1.7c-.1.1-.2.1-.3 0-.1-.1-.1-.2-.1-.4v-.3l7.5-31.5zm16.1 5.1c0 .4-.1.7-.2.9-.1.3-.3.5-.5.9L204 76.3c-.1.1-.1.1-.1.2l-.1.1c-.1.1-.2.1-.3 0-.1-.1-.1-.2-.1-.4v-5.5c0-.4.1-.8.3-1.1.2-.3.3-.5.4-.7l3.8-5.9-3.8-1.5c-.1 0-.3-.1-.4-.2-.2-.1-.3-.4-.3-.8V55c0-.2 0-.4.1-.6.1-.2.2-.3.3-.4h.2l8.8 4c.2.1.4.2.5.3.1.1.2.4.2.7v1.4z" id="_x3C__x2F__x3E__2_"/></g></g><g id="Text_Boxes"><g id="Text_Box_6_"><g id="_x7B__x7D__3_"><g id="Speech_Bubble_6_"><g id="Speach_Bubble_5_"><g id="XMLID_96_"><path id="XMLID_98_" class="st9" d="M96.5 27.2l-53.9 31c-.7.4-1.3 1.5-1.3 2.3v30.1c0 .9.6 1.9 1.3 2.3l5.3 3c.7.4 1.9.4 2.7 0l53.9-31c.7-.4 1.3-1.5 1.3-2.3V32.5c0-.9-.6-1.9-1.3-2.3l-5.3-3c-.8-.4-2-.4-2.7 0z"/><path id="XMLID_97_" class="st3" d="M105.8 32.3c-.1-.7-.7-.9-1.3-.5l-53.9 31c-.4.2-.7.6-.9 1l-8-4.6c.2-.4.6-.7.9-1l53.9-31c.7-.4 1.9-.4 2.7 0l5.3 3c.7.4 1.2 1.3 1.3 2.1z"/><path class="st2" d="M104.5 31.7l-53.9 31c-.7.4-1.3 1.5-1.3 2.3v30.1c0 .9.6 1.2 1.3.8l53.9-31c.7-.4 1.3-1.5 1.3-2.3V32.5c0-.8-.6-1.2-1.3-.8z"/></g></g></g></g><path class="st39" d="M62.6 70.5v4.6c0 .4.1.8.2 1.1.1.3.2.6.4.8.2.2.4.3.7.3.3 0 .6-.1 1-.3.4-.2.7-.5 1-.8.3-.3.5-.6.6-.9.2-.3.3-.6.4-.9.1-.3.2-.6.2-.8.1-.3.1-.6.2-.7.1-.2.2-.3.4-.4l2.3-1.3c.1-.1.2-.1.3 0 .1.1.1.2.1.3 0 .9-.2 1.8-.4 2.8-.3 1-.7 1.9-1.1 2.7-.5.9-1 1.7-1.7 2.4-.6.7-1.4 1.3-2.1 1.7-.8.5-1.6.7-2.2.7-.6 0-1.2-.2-1.7-.6-.5-.4-.8-.9-1.1-1.7-.2-.7-.4-1.6-.4-2.5v-4.7c0-1 .2-2 .4-3 .3-1 .6-2 1.1-2.9.5-.9 1-1.8 1.7-2.5.7-.8 1.4-1.4 2.2-1.9.8-.4 1.5-.7 2.1-.7.6 0 1.2.1 1.7.4.5.3.9.8 1.1 1.4.3.6.4 1.4.4 2.3 0 .2 0 .3-.1.5s-.2.3-.3.3l-2.3 1.3c-.2.1-.3.1-.4.1-.3-.2-.3-.3-.4-.6 0-.2-.1-.4-.2-.6-.1-.2-.2-.4-.4-.5-.2-.1-.4-.2-.6-.2-.3 0-.6.1-1 .3-.4.2-.7.5-1 .8-.3.3-.5.7-.7 1.1-.2.4-.3.8-.4 1.2.1.6 0 1 0 1.4zm14.6-15.8c.7-.4 1.4-.6 2-.7.6 0 1.1.1 1.6.3.4.3.8.6 1 1.1.3.5.4 1 .4 1.5 0 .2 0 .3-.1.5s-.2.3-.2.3L79.6 59c-.2.1-.3.1-.4.1-.1 0-.2-.1-.3-.1l-.2-.2c-.1-.1-.2-.1-.3-.2-.1-.1-.3-.1-.5 0-.2 0-.5.1-.8.3-.2.1-.4.3-.6.4-.2.2-.4.3-.5.5-.2.2-.3.4-.4.6-.1.2-.1.5-.1.7 0 .3.1.5.2.6.1.3.3.3.6.3s.6 0 1-.2c.4-.1 1-.2 1.6-.4.6-.2 1.2-.2 1.7-.2s.9.2 1.2.4c.3.3.5.7.7 1.2.2.5.2 1.2.2 2 0 .9-.1 1.8-.4 2.6-.3.9-.6 1.7-1.1 2.5-.5.8-1 1.5-1.7 2.1-.6.6-1.4 1.2-2.1 1.6-.8.5-1.5.7-2.1.8-.6.1-1.2 0-1.7-.3s-.8-.6-1.1-1.1c-.3-.4-.5-1-.5-1.7 0-.2 0-.3.1-.5s.2-.3.3-.3l2.3-1.3c.2-.1.3-.1.4-.1.1 0 .2 0 .3.1l.2.2c.1.1.2.2.4.3.2.1.3.1.6.1.2 0 .5-.1.9-.3.6-.4 1.1-.7 1.5-1.2.4-.4.6-.9.6-1.5 0-.3-.1-.4-.2-.5-.1-.1-.4-.1-.7-.1-.3 0-.7.1-1.1.2-.5.1-1 .3-1.6.4-1.2.3-2 .1-2.6-.5-.5-.6-.8-1.7-.8-3.2 0-.8.1-1.5.3-2.4.2-.8.5-1.6 1-2.4.4-.8.9-1.5 1.5-2.1.4-.5 1.1-1 1.8-1.5zm12.5-7.2c.7-.4 1.4-.6 2-.7.6 0 1.1.1 1.6.3.4.3.8.6 1 1.1.3.5.4 1 .4 1.5 0 .2 0 .3-.1.5s-.2.3-.3.3L92 51.8c0 .2-.1.3-.2.2-.1 0-.2-.1-.3-.1l-.2-.2c-.1-.1-.2-.1-.3-.2-.1-.1-.3-.1-.5 0-.2 0-.5.1-.8.3-.2.1-.4.3-.6.4-.2.2-.4.3-.5.5-.2.2-.3.4-.4.6-.1.2-.1.5-.1.7 0 .3.1.5.2.6.1.1.3.2.5.2.3 0 .6 0 1-.2.4-.1 1-.2 1.6-.4.6-.2 1.2-.2 1.7-.2s.9.2 1.2.4c.3.3.6.7.7 1.2.2.5.2 1.2.2 2 0 .9-.1 1.8-.4 2.6-.3.9-.6 1.7-1.1 2.5-.5.8-1 1.5-1.7 2.1-.6.6-1.4 1.2-2.1 1.6-.8.5-1.5.7-2.1.8-.6.1-1.2 0-1.7-.3s-.8-.6-1.1-1.1c-.3-.5-.4-1.1-.4-1.7 0-.2 0-.3.1-.5s.2-.3.2-.3l2.3-1.3c.2-.1.3-.1.4-.1.1 0 .2 0 .3.1l.2.2c.1.1.2.2.4.3.2.1.3.1.6.1.2 0 .5-.1.9-.3.6-.4 1.1-.7 1.5-1.2.4-.4.6-.9.6-1.5 0-.3-.1-.4-.2-.5-.1-.1-.4-.1-.7-.1-.3 0-.7.1-1.1.2-.5.1-1 .3-1.6.4-1.2.3-2 .1-2.6-.5-.5-.6-.8-1.7-.8-3.2 0-.8.1-1.5.3-2.4.2-.8.5-1.6 1-2.4.4-.8.9-1.5 1.5-2.1.4-.5 1.1-1 1.8-1.5z"/></g><g id="Text_Box_2_"><g id="_x7B__x7D__2_"><g id="Speech_Bubble_5_"><g id="Speach_Bubble_4_"><g id="XMLID_19_"><path id="XMLID_21_" class="st9" d="M96.5 89.7l-53.9 31c-.7.4-1.3 1.5-1.3 2.3v30.1c0 .9.6 1.9 1.3 2.3l5.3 3c.7.4 1.9.4 2.7 0l53.9-31c.7-.4 1.3-1.5 1.3-2.3V95c0-.9-.6-1.9-1.3-2.3l-5.3-3c-.8-.4-2-.4-2.7 0z"/><path id="XMLID_20_" class="st3" d="M105.8 94.8c-.1-.7-.7-.9-1.3-.5l-53.9 31c-.4.2-.7.6-.9 1l-8-4.6c.2-.4.6-.7.9-1l53.9-31c.7-.4 1.9-.4 2.7 0l5.3 3c.7.4 1.2 1.3 1.3 2.1z"/><path class="st2" d="M104.5 94.3l-53.9 31c-.7.4-1.3 1.5-1.3 2.3v30.1c0 .9.6 1.2 1.3.8l53.9-31c.7-.4 1.3-1.5 1.3-2.3V95c0-.8-.6-1.2-1.3-.7z"/></g></g></g></g><path class="st39" d="M62.9 125.8c.1-.1.2-.1.3 0 .1.1.1.2.1.4v17.1c0 .2 0 .4-.1.6-.1.2-.2.3-.3.4l-2.3 1.3c-.1.1-.2.1-.3 0-.1-.1-.1-.2-.1-.4v-6.5l-3.8 2.2v6.5c0 .2 0 .4-.1.6-.1.2-.2.3-.3.4l-2.3 1.3c-.1.1-.2.1-.3 0-.1-.1-.1-.2-.1-.4v-17.1c0-.2 0-.4.1-.6.1-.2.2-.3.3-.4l2.3-1.3c.1-.1.2-.1.3 0 .1.1.1.2.1.4v6.4l3.8-2.2v-6.4c0-.2 0-.4.1-.6.1-.2.2-.3.3-.4l2.3-1.3zm12.5-7.2c.1-.1.2-.1.3 0 .1.1.1.2.1.4v2.8c0 .2 0 .4-.1.6-.1.2-.2.3-.3.4l-3 1.7v13.6c0 .2 0 .4-.1.6-.1.2-.2.3-.3.4l-2.3 1.3c-.1.1-.2.1-.3 0-.1-.1-.1-.2-.1-.4v-13.6l-3 1.7c-.1.1-.2.1-.3 0-.1-.1-.1-.2-.1-.4v-2.8c0-.2 0-.4.1-.6.1-.2.2-.3.3-.4l9.1-5.3zm7.9 9.3c-.1-.1-.2-.2-.2-.3l-1.6-3.4v8.8c0 .2 0 .4-.1.6-.1.2-.2.3-.3.4l-2.3 1.3c-.1.1-.2.1-.3 0-.1-.1-.1-.2-.1-.4v-17.1c0-.2 0-.4.1-.6.1-.2.2-.3.3-.4l2-1.2c.2-.1.4-.1.5 0 .1.1.2.2.2.3l2.8 5.7 2.8-8.9c0-.1.1-.3.2-.6s.3-.5.5-.6l2-1.2c.1-.1.2-.1.3 0 .1.1.1.2.1.4v17.1c0 .2 0 .4-.1.6-.1.2-.2.3-.3.4l-2.3 1.3c-.1.1-.2.1-.3 0-.1-.1-.1-.2-.1-.4v-8.8l-1.6 5.3c-.1.2-.1.4-.2.6-.1.2-.2.4-.4.5l-1.1.6c-.2.1-.4.1-.5 0zm18.7-10.4c.1-.1.2-.1.3 0 .1.1.1.2.1.4v2.8c0 .2 0 .4-.1.6-.1.2-.2.3-.3.4l-8 4.6c-.1.1-.2.1-.3 0-.1-.1-.1-.2-.1-.4v-17.1c0-.2 0-.4.1-.6.1-.2.2-.3.3-.4l2.3-1.3c.1-.1.2-.1.3 0 .1.1.1.2.1.4v13.6l5.3-3z"/></g><g id="Text_Box_1_"><g id="_x7B__x7D__1_"><g id="Speech_Bubble_1_"><g id="Speach_Bubble_3_"><g id="XMLID_16_"><path id="XMLID_18_" class="st9" d="M96.5 152.2l-53.9 31c-.7.4-1.3 1.5-1.3 2.3v30.1c0 .9.6 1.9 1.3 2.3l5.3 3c.7.4 1.9.4 2.7 0l53.9-31c.7-.4 1.3-1.5 1.3-2.3v-30.1c0-.9-.6-1.9-1.3-2.3l-5.3-3c-.8-.4-2-.4-2.7 0z"/><path id="XMLID_17_" class="st3" d="M105.8 157.3c-.1-.7-.7-.9-1.3-.5l-53.9 31c-.4.2-.7.6-.9 1l-8-4.6c.2-.4.6-.7.9-1l53.9-31c.7-.4 1.9-.4 2.7 0l5.3 3c.7.4 1.2 1.3 1.3 2.1z"/><path class="st2" d="M104.5 156.8l-53.9 31c-.7.4-1.3 1.5-1.3 2.3v30.1c0 .9.6 1.2 1.3.8l53.9-31c.7-.4 1.3-1.5 1.3-2.3v-30.1c0-.9-.6-1.3-1.3-.8z"/></g></g></g></g><path class="st39" d="M63.6 194.9v4.6c0 .4.1.8.2 1.1.1.3.2.6.4.8.2.2.4.3.7.3.3 0 .6-.1 1-.3.4-.2.7-.5 1-.8.3-.3.5-.6.6-.9.2-.3.3-.6.4-.9.1-.3.2-.6.2-.8.1-.3.1-.6.2-.7.1-.2.2-.3.4-.4l2.3-1.3c.1-.1.2-.1.3 0 .1.1.1.2.1.3 0 .9-.2 1.8-.4 2.8-.3 1-.7 1.9-1.1 2.7-.5.9-1 1.7-1.7 2.4-.6.7-1.4 1.3-2.1 1.7-.8.5-1.6.7-2.2.7-.6 0-1.2-.2-1.7-.6-.5-.4-.8-.9-1.1-1.7-.2-.7-.4-1.6-.4-2.5v-4.7c0-1 .2-2 .4-3 .3-1 .6-2 1.1-2.9.5-.9 1-1.8 1.7-2.5.7-.8 1.4-1.4 2.2-1.9.8-.4 1.5-.7 2.1-.7.6 0 1.2.1 1.7.4.5.3.9.8 1.1 1.4.3.6.4 1.4.4 2.3 0 .2 0 .3-.1.5s-.2.3-.3.3l-2.3 1.3c-.2.1-.3.1-.4.1-.1-.1-.1-.2-.2-.5 0-.2-.1-.4-.2-.6-.1-.2-.2-.4-.4-.5-.2-.1-.4-.2-.6-.2-.3 0-.6.1-1 .3-.4.2-.7.5-1 .8-.3.3-.5.7-.7 1.1-.2.4-.3.8-.4 1.2-.1.5-.1.9-.2 1.3zm15.8-3.5v4.4c0 .2 0 .4-.1.6-.1.2-.2.3-.3.4l-2.2 1.3c-.1.1-.2.1-.3 0-.1-.1-.1-.2-.1-.4v-4.4l-2.7 1.5c-.1.1-.2.1-.3 0-.1-.1-.1-.2-.1-.4v-2.7c0-.2 0-.4.1-.6.1-.2.2-.3.3-.4l2.7-1.5v-4.4c0-.2 0-.4.1-.6.1-.2.2-.3.3-.4l2.2-1.3c.1-.1.2-.1.3 0 .1.1.1.2.1.4v4.4l2.7-1.5c.1-.1.2-.1.3 0 .1.1.1.2.1.4v2.7c0 .2 0 .4-.1.6-.1.2-.2.3-.3.4l-2.7 1.5zm11.4-6.6v4.4c0 .2 0 .4-.1.6-.1.2-.2.3-.3.4l-2.2 1.3c-.1.1-.2.1-.3 0-.1-.1-.1-.2-.1-.4v-4.4l-2.7 1.5c-.1.1-.2.1-.3 0-.1-.1-.1-.2-.1-.4V185c0-.2 0-.4.1-.6.1-.2.2-.3.3-.4l2.7-1.5v-4.4c0-.2 0-.4.1-.6.1-.2.2-.3.3-.4l2.2-1.3c.1-.1.2-.1.3 0 .1.1.1.2.1.4v4.4l2.7-1.5c.1-.1.2-.1.3 0 .1.1.1.2.1.4v2.7c0 .2 0 .4-.1.6-.1.2-.2.3-.3.4l-2.7 1.6z"/></g></g></svg>